<svg xmlns="http://www.w3.org/2000/svg" viewBox="0 0 800 450" width="800" height="450" font-family="Inter, system-ui, sans-serif">
  <rect width="800" height="450" fill="#FFFFFF"/>

  <!-- Title -->
  <text x="400" y="32" text-anchor="middle" font-size="16" font-weight="700" fill="#1E293B">SSE Connection Lifecycle</text>

  <!-- Client box -->
  <rect x="60" y="60" width="120" height="40" rx="8" fill="#3B82F6" opacity="0.12" stroke="#3B82F6" stroke-width="1.5"/>
  <text x="120" y="85" text-anchor="middle" font-size="13" font-weight="600" fill="#3B82F6">Client</text>

  <!-- Server box -->
  <rect x="620" y="60" width="120" height="40" rx="8" fill="#10B981" opacity="0.12" stroke="#10B981" stroke-width="1.5"/>
  <text x="680" y="85" text-anchor="middle" font-size="13" font-weight="600" fill="#10B981">Server</text>

  <!-- Vertical lifelines -->
  <line x1="120" y1="100" x2="120" y2="430" stroke="#94A3B8" stroke-width="1" stroke-dasharray="4,4"/>
  <line x1="680" y1="100" x2="680" y2="430" stroke="#94A3B8" stroke-width="1" stroke-dasharray="4,4"/>

  <!-- Step 1: GET request -->
  <line x1="120" y1="125" x2="680" y2="125" stroke="#3B82F6" stroke-width="1.5" marker-end="url(#arrowBlue)"/>
  <rect x="240" y="110" width="320" height="22" rx="4" fill="#FFFFFF"/>
  <text x="400" y="126" text-anchor="middle" font-size="11" fill="#3B82F6" font-weight="500">GET /events  Accept: text/event-stream</text>

  <!-- Step 2: 200 OK -->
  <line x1="680" y1="160" x2="120" y2="160" stroke="#10B981" stroke-width="1.5" marker-end="url(#arrowGreen)"/>
  <rect x="240" y="145" width="320" height="22" rx="4" fill="#FFFFFF"/>
  <text x="400" y="161" text-anchor="middle" font-size="11" fill="#10B981" font-weight="500">200 OK  Content-Type: text/event-stream</text>

  <!-- Step 3: Event 1 -->
  <line x1="680" y1="200" x2="120" y2="200" stroke="#6366F1" stroke-width="1.5" marker-end="url(#arrowIndigo)"/>
  <rect x="290" y="185" width="220" height="22" rx="4" fill="#FFFFFF"/>
  <text x="400" y="201" text-anchor="middle" font-size="11" fill="#6366F1" font-weight="500">id: 1  data: {"{"}"msg":"hello"{"}"}</text>

  <!-- Step 4: Event 2 -->
  <line x1="680" y1="230" x2="120" y2="230" stroke="#6366F1" stroke-width="1.5" marker-end="url(#arrowIndigo)"/>
  <rect x="290" y="215" width="220" height="22" rx="4" fill="#FFFFFF"/>
  <text x="400" y="231" text-anchor="middle" font-size="11" fill="#6366F1" font-weight="500">id: 2  data: {"{"}"msg":"world"{"}"}</text>

  <!-- Step 5: Keep-alive -->
  <line x1="680" y1="260" x2="120" y2="260" stroke="#94A3B8" stroke-width="1" stroke-dasharray="3,3" marker-end="url(#arrowGray)"/>
  <rect x="320" y="245" width="160" height="22" rx="4" fill="#FFFFFF"/>
  <text x="400" y="261" text-anchor="middle" font-size="11" fill="#94A3B8" font-weight="500">: heartbeat (comment)</text>

  <!-- Step 6: Disconnect -->
  <line x1="400" y1="295" x2="400" y2="295" stroke="#EF4444" stroke-width="0"/>
  <rect x="310" y="285" width="180" height="24" rx="6" fill="#FEF2F2" stroke="#EF4444" stroke-width="1"/>
  <text x="400" y="301" text-anchor="middle" font-size="11" fill="#EF4444" font-weight="600">Connection Drops</text>

  <!-- X marks on lifelines -->
  <text x="120" y="300" text-anchor="middle" font-size="16" fill="#EF4444" font-weight="700">X</text>
  <text x="680" y="300" text-anchor="middle" font-size="16" fill="#EF4444" font-weight="700">X</text>

  <!-- Step 7: Wait -->
  <rect x="60" y="320" width="120" height="22" rx="4" fill="#F59E0B" opacity="0.12" stroke="#F59E0B" stroke-width="1"/>
  <text x="120" y="335" text-anchor="middle" font-size="10" fill="#F59E0B" font-weight="500">retry: 3000ms</text>

  <!-- Step 8: Reconnect -->
  <line x1="120" y1="360" x2="680" y2="360" stroke="#F59E0B" stroke-width="1.5" marker-end="url(#arrowAmber)"/>
  <rect x="240" y="345" width="320" height="22" rx="4" fill="#FFFFFF"/>
  <text x="400" y="361" text-anchor="middle" font-size="11" fill="#F59E0B" font-weight="500">GET /events  Last-Event-ID: 2</text>

  <!-- Step 9: Resume -->
  <line x1="680" y1="395" x2="120" y2="395" stroke="#10B981" stroke-width="1.5" marker-end="url(#arrowGreen)"/>
  <rect x="260" y="380" width="280" height="22" rx="4" fill="#FFFFFF"/>
  <text x="400" y="396" text-anchor="middle" font-size="11" fill="#10B981" font-weight="500">200 OK  replays events from id &amp;gt; 2</text>

  <!-- Step 10: New events -->
  <line x1="680" y1="425" x2="120" y2="425" stroke="#6366F1" stroke-width="1.5" marker-end="url(#arrowIndigo)"/>
  <rect x="290" y="410" width="220" height="22" rx="4" fill="#FFFFFF"/>
  <text x="400" y="426" text-anchor="middle" font-size="11" fill="#6366F1" font-weight="500">id: 3  data: {"{"}"msg":"resumed"{"}"}</text>

  <!-- Arrow markers -->
  <defs>
    <marker id="arrowBlue" markerWidth="8" markerHeight="6" refX="8" refY="3" orient="auto">
      <polygon points="0,0 8,3 0,6" fill="#3B82F6"/>
    </marker>
    <marker id="arrowGreen" markerWidth="8" markerHeight="6" refX="8" refY="3" orient="auto">
      <polygon points="0,0 8,3 0,6" fill="#10B981"/>
    </marker>
    <marker id="arrowIndigo" markerWidth="8" markerHeight="6" refX="8" refY="3" orient="auto">
      <polygon points="0,0 8,3 0,6" fill="#6366F1"/>
    </marker>
    <marker id="arrowGray" markerWidth="8" markerHeight="6" refX="8" refY="3" orient="auto">
      <polygon points="0,0 8,3 0,6" fill="#94A3B8"/>
    </marker>
    <marker id="arrowAmber" markerWidth="8" markerHeight="6" refX="8" refY="3" orient="auto">
      <polygon points="0,0 8,3 0,6" fill="#F59E0B"/>
    </marker>
  </defs>
</svg>
