<?xml version="1.0" encoding="UTF-8"?>
<svg xmlns="http://www.w3.org/2000/svg" viewBox="0 0 900 650" width="100%" height="100%">
  <defs>
    <marker id="arrowhead" markerWidth="10" markerHeight="7" refX="9" refY="3.5" orient="auto">
      <polygon points="0 0, 10 3.5, 0 7" fill="#1f2937"/>
    </marker>
    <marker id="arrowhead-red" markerWidth="10" markerHeight="7" refX="9" refY="3.5" orient="auto">
      <polygon points="0 0, 10 3.5, 0 7" fill="#dc2626"/>
    </marker>
    <marker id="arrowhead-green" markerWidth="10" markerHeight="7" refX="9" refY="3.5" orient="auto">
      <polygon points="0 0, 10 3.5, 0 7" fill="#16a34a"/>
    </marker>
    <linearGradient id="spikeGrad" x1="0" y1="1" x2="0" y2="0">
      <stop offset="0%" stop-color="#fca5a5" stop-opacity="0.3"/>
      <stop offset="100%" stop-color="#dc2626" stop-opacity="0.7"/>
    </linearGradient>
    <linearGradient id="recoveryGrad" x1="0" y1="1" x2="0" y2="0">
      <stop offset="0%" stop-color="#86efac" stop-opacity="0.3"/>
      <stop offset="100%" stop-color="#16a34a" stop-opacity="0.6"/>
    </linearGradient>
    <linearGradient id="normalGrad" x1="0" y1="1" x2="0" y2="0">
      <stop offset="0%" stop-color="#bfdbfe" stop-opacity="0.2"/>
      <stop offset="100%" stop-color="#3b82f6" stop-opacity="0.5"/>
    </linearGradient>
    <linearGradient id="uniformGrad" x1="0" y1="1" x2="0" y2="0">
      <stop offset="0%" stop-color="#fdba74" stop-opacity="0.3"/>
      <stop offset="100%" stop-color="#f97316" stop-opacity="0.6"/>
    </linearGradient>
    <linearGradient id="staggeredGrad" x1="0" y1="1" x2="0" y2="0">
      <stop offset="0%" stop-color="#86efac" stop-opacity="0.2"/>
      <stop offset="100%" stop-color="#16a34a" stop-opacity="0.5"/>
    </linearGradient>
  </defs>

  <!-- White background -->
  <rect width="100%" height="100%" fill="#ffffff"/>

  <!-- Title -->
  <text x="450" y="38" font-family="system-ui, -apple-system, sans-serif" font-size="22" font-weight="700" fill="#111827" text-anchor="middle">Hot Key Expiry Timeline: Cache Breakdown Cascade</text>
  <text x="450" y="58" font-family="system-ui, -apple-system, sans-serif" font-size="13" font-weight="400" fill="#374151" text-anchor="middle">Synchronized expiration &#8594; request spike &#8594; DB overload &#8594; recovery cycle</text>

  <!-- Phase 1: Normal State -->
  <g transform="translate(50, 90)">
    <rect x="0" y="0" width="155" height="140" rx="8" fill="#f0fdf4" stroke="#16a34a" stroke-width="2"/>
    <text x="77" y="24" font-family="system-ui, -apple-system, sans-serif" font-size="14" font-weight="700" fill="#111827" text-anchor="middle">Phase 1: Normal</text>
    <text x="77" y="42" font-family="system-ui, -apple-system, sans-serif" font-size="11" font-weight="400" fill="#374151" text-anchor="middle">(T + 0 min)</text>
    
    <!-- Cache icon -->
    <rect x="25" y="52" width="40" height="30" rx="4" fill="#dbeafe" stroke="#3b82f6" stroke-width="2"/>
    <text x="45" y="71" font-family="system-ui, -apple-system, sans-serif" font-size="10" font-weight="700" fill="#1e40af" text-anchor="middle">Cache</text>
    
    <!-- Arrow -->
    <line x1="85" y1="67" x2="105" y2="67" stroke="#1f2937" stroke-width="2" marker-end="url(#arrowhead)"/>
    
    <!-- DB icon -->
    <ellipse cx="128" cy="67" rx="22" ry="15" fill="#e0e7ff" stroke="#4f46e5" stroke-width="2"/>
    <text x="128" y="71" font-family="system-ui, -apple-system, sans-serif" font-size="9" font-weight="700" fill="#3730a3" text-anchor="middle">DB</text>
    
    <!-- Metrics -->
    <text x="10" y="100" font-family="system-ui, -apple-system, sans-serif" font-size="10" font-weight="400" fill="#1f2937">Hit Rate: 98%</text>
    <text x="10" y="115" font-family="system-ui, -apple-system, sans-serif" font-size="10" font-weight="400" fill="#1f2937">Req Rate: 500/s</text>
    <text x="10" y="130" font-family="system-ui, -apple-system, sans-serif" font-size="10" font-weight="400" fill="#1f2937">DB Load: 12%</text>
  </g>

  <!-- Arrow Phase 1 to 2 -->
  <line x1="205" y1="160" x2="235" y2="160" stroke="#1f2937" stroke-width="2" marker-end="url(#arrowhead)"/>
  <text x="220" y="148" font-family="system-ui, -apple-system, sans-serif" font-size="10" font-weight="700" fill="#374151" text-anchor="middle">Keys</text>
  <text x="220" y="175" font-family="system-ui, -apple-system, sans-serif" font-size="10" font-weight="700" fill="#dc2626" text-anchor="middle">expire</text>

  <!-- Phase 2: Cache Miss Storm -->
  <g transform="translate(250, 90)">
    <rect x="0" y="0" width="155" height="140" rx="8" fill="#fef2f2" stroke="#dc2626" stroke-width="2"/>
    <text x="77" y="24" font-family="system-ui, -apple-system, sans-serif" font-size="14" font-weight="700" fill="#111827" text-anchor="middle">Phase 2: Cache Miss</text>
    <text x="77" y="42" font-family="system-ui, -apple-system, sans-serif" font-size="11" font-weight="400" fill="#374151" text-anchor="middle">(T + 15 min)</text>
    
    <!-- Cache icon with X -->
    <rect x="25" y="52" width="40" height="30" rx="4" fill="#fee2e2" stroke="#dc2626" stroke-width="2"/>
    <text x="45" y="71" font-family="system-ui, -apple-system, sans-serif" font-size="10" font-weight="700" fill="#dc2626" text-anchor="middle">EMPTY</text>
    
    <!-- Multiple arrows to DB -->
    <line x1="85" y1="60" x2="105" y2="55" stroke="#dc2626" stroke-width="2" marker-end="url(#arrowhead-red)"/>
    <line x1="85" y1="67" x2="105" y2="67" stroke="#dc2626" stroke-width="2" marker-end="url(#arrowhead-red)"/>
    <line x1="85" y1="74" x2="105" y2="79" stroke="#dc2626" stroke-width="2" marker-end="url(#arrowhead-red)"/>
    
    <!-- DB icon overloaded -->
    <ellipse cx="128" cy="67" rx="22" ry="15" fill="#fee2e2" stroke="#dc2626" stroke-width="2"/>
    <text x="128" y="71" font-family="system-ui, -apple-system, sans-serif" font-size="9" font-weight="700" fill="#dc2626" text-anchor="middle">DB!</text>
    
    <!-- Metrics -->
    <text x="10" y="100" font-family="system-ui, -apple-system, sans-serif" font-size="10" font-weight="400" fill="#1f2937">Hit Rate: 2%</text>
    <text x="10" y="115" font-family="system-ui, -apple-system, sans-serif" font-size="10" font-weight="400" fill="#1f2937">Req Rate: 15K/s</text>
    <text x="10" y="130" font-family="system-ui, -apple-system, sans-serif" font-size="10" font-weight="400" fill="#1f2937">DB Load: 98%</text>
  </g>

  <!-- Arrow Phase 2 to 3 -->
  <line x1="405" y1="160" x2="435" y2="160" stroke="#1f2937" stroke-width="2" marker-end="url(#arrowhead)"/>
  <text x="420" y="148" font-family="system-ui, -apple-system, sans-serif" font-size="10" font-weight="700" fill="#374151" text-anchor="middle">DB</text>
  <text x="420" y="175" font-family="system-ui, -apple-system, sans-serif" font-size="10" font-weight="700" fill="#dc2626" text-anchor="middle">overload</text>

  <!-- Phase 3: DB Overload -->
  <g transform="translate(450, 90)">
    <rect x="0" y="0" width="155" height="140" rx="8" fill="#fef2f2" stroke="#dc2626" stroke-width="2"/>
    <text x="77" y="24" font-family="system-ui, -apple-system, sans-serif" font-size="14" font-weight="700" fill="#111827" text-anchor="middle">Phase 3: DB Crisis</text>
    <text x="77" y="42" font-family="system-ui, -apple-system, sans-serif" font-size="11" font-weight="400" fill="#374151" text-anchor="middle">(T + 18 min)</text>
    
    <!-- Multiple app servers hitting DB -->
    <rect x="10" y="50" width="35" height="20" rx="3" fill="#fee2e2" stroke="#dc2626" stroke-width="2"/>
    <text x="27" y="64" font-family="system-ui, -apple-system, sans-serif" font-size="8" font-weight="700" fill="#dc2626" text-anchor="middle">App1</text>
    <rect x="10" y="75" width="35" height="20" rx="3" fill="#fee2e2" stroke="#dc2626" stroke-width="2"/>
    <text x="27" y="89" font-family="system-ui, -apple-system, sans-serif" font-size="8" font-weight="700" fill="#dc2626" text-anchor="middle">App2</text>
    <rect x="10" y="100" width="35" height="20" rx="3" fill="#fee2e2" stroke="#dc2626" stroke-width="2"/>
    <text x="27" y="114" font-family="system-ui, -apple-system, sans-serif" font-size="8" font-weight="700" fill="#dc2626" text-anchor="middle">App3</text>
    
    <!-- Arrows -->
    <line x1="45" y1="60" x2="70" y2="65" stroke="#dc2626" stroke-width="2" marker-end="url(#arrowhead-red)"/>
    <line x1="45" y1="85" x2="70" y2="85" stroke="#dc2626" stroke-width="2" marker-end="url(#arrowhead-red)"/>
    <line x1="45" y1="110" x2="70" y2="105" stroke="#dc2626" stroke-width="2" marker-end="url(#arrowhead-red)"/>
    
    <!-- DB icon -->
    <ellipse cx="100" cy="85" rx="25" ry="20" fill="#dc2626" stroke="#991b1b" stroke-width="2"/>
    <text x="100" y="82" font-family="system-ui, -apple-system, sans-serif" font-size="9" font-weight="700" fill="#ffffff" text-anchor="middle">DB</text>
    <text x="100" y="94" font-family="system-ui, -apple-system, sans-serif" font-size="8" font-weight="700" fill="#fca5a5" text-anchor="middle">TIMEOUT</text>
    
    <!-- Metrics -->
    <text x="130" y="60" font-family="system-ui, -apple-system, sans-serif" font-size="10" font-weight="400" fill="#1f2937">Latency: 5s+</text>
    <text x="130" y="75" font-family="system-ui, -apple-system, sans-serif" font-size="10" font-weight="400" fill="#1f2937">Errors: 45%</text>
    <text x="130" y="90" font-family="system-ui, -apple-system, sans-serif" font-size="10" font-weight="400" fill="#1f2937">Conn: MAX</text>
    <text x="130" y="105" font-family="system-ui, -apple-system, sans-serif" font-size="10" font-weight="400" fill="#1f2937">CPU: 100%</text>
  </g>

  <!-- Arrow Phase 3 to 4 -->
  <line x1="605" y1="160" x2="635" y2="160" stroke="#1f2937" stroke-width="2" marker-end="url(#arrowhead)"/>
  <text x="620" y="148" font-family="system-ui, -apple-system, sans-serif" font-size="10" font-weight="700" fill="#374151" text-anchor="middle">Keys</text>
  <text x="620" y="175" font-family="system-ui, -apple-system, sans-serif" font-size="10" font-weight="700" fill="#16a34a" text-anchor="middle">refilled</text>

  <!-- Phase 4: Recovery -->
  <g transform="translate(650, 90)">
    <rect x="0" y="0" width="155" height="140" rx="8" fill="#f0fdf4" stroke="#16a34a" stroke-width="2"/>
    <text x="77" y="24" font-family="system-ui, -apple-system, sans-serif" font-size="14" font-weight="700" fill="#111827" text-anchor="middle">Phase 4: Recovery</text>
    <text x="77" y="42" font-family="system-ui, -apple-system, sans-serif" font-size="11" font-weight="400" fill="#374151" text-anchor="middle">(T + 30 min)</text>
    
    <!-- Cache being refilled -->
    <rect x="25" y="52" width="40" height="30" rx="4" fill="#dcfce7" stroke="#16a34a" stroke-width="2"/>
    <text x="45" y="66" font-family="system-ui, -apple-system, sans-serif" font-size="8" font-weight="700" fill="#16a34a" text-anchor="middle">Filling</text>
    <text x="45" y="77" font-family="system-ui, -apple-system, sans-serif" font-size="8" font-weight="400" fill="#16a34a" text-anchor="middle">65%</text>
    
    <!-- Arrow -->
    <line x1="85" y1="67" x2="105" y2="67" stroke="#16a34a" stroke-width="2" marker-end="url(#arrowhead-green)"/>
    
    <!-- DB icon recovering -->
    <ellipse cx="128" cy="67" rx="22" ry="15" fill="#dcfce7" stroke="#16a34a" stroke-width="2"/>
    <text x="128" y="71" font-family="system-ui, -apple-system, sans-serif" font-size="9" font-weight="700" fill="#16a34a" text-anchor="middle">DB</text>
    
    <!-- Metrics -->
    <text x="10" y="100" font-family="system-ui, -apple-system, sans-serif" font-size="10" font-weight="400" fill="#1f2937">Hit Rate: 65%</text>
    <text x="10" y="115" font-family="system-ui, -apple-system, sans-serif" font-size="10" font-weight="400" fill="#1f2937">Req Rate: 8K/s</text>
    <text x="10" y="130" font-family="system-ui, -apple-system, sans-serif" font-size="10" font-weight="400" fill="#1f2937">DB Load: 45%</text>
  </g>

  <!-- Request Rate Graph -->
  <g transform="translate(50, 260)">
    <text x="400" y="0" font-family="system-ui, -apple-system, sans-serif" font-size="16" font-weight="700" fill="#111827" text-anchor="middle">Request Rate Over Time (with DB Load Overlay)</text>
    
    <!-- Graph background -->
    <rect x="0" y="20" width="800" height="220" fill="#fafafa" stroke="#d1d5db" stroke-width="2" rx="4"/>
    
    <!-- Y-axis labels -->
    <text x="-5" y="45" font-family="system-ui, -apple-system, sans-serif" font-size="10" font-weight="400" fill="#374151" text-anchor="end">20K/s</text>
    <text x="-5" y="95" font-family="system-ui, -apple-system, sans-serif" font-size="10" font-weight="400" fill="#374151" text-anchor="end">15K/s</text>
    <text x="-5" y="145" font-family="system-ui, -apple-system, sans-serif" font-size="10" font-weight="400" fill="#374151" text-anchor="end">10K/s</text>
    <text x="-5" y="195" font-family="system-ui, -apple-system, sans-serif" font-size="10" font-weight="400" fill="#374151" text-anchor="end">5K/s</text>
    <text x="-5" y="235" font-family="system-ui, -apple-system, sans-serif" font-size="10" font-weight="400" fill="#374151" text-anchor="end">0</text>
    
    <!-- Y-axis -->
    <line x1="35" y1="25" x2="35" y2="235" stroke="#1f2937" stroke-width="2"/>
    
    <!-- X-axis -->
    <line x1="35" y1="235" x2="795" y2="235" stroke="#1f2937" stroke-width="2"/>
    
    <!-- X-axis labels -->
    <text x="100" y="252" font-family="system-ui, -apple-system, sans-serif" font-size="10" font-weight="400" fill="#374151" text-anchor="middle">T+0</text>
    <text x="250" y="252" font-family="system-ui, -apple-system, sans-serif" font-size="10" font-weight="400" fill="#374151" text-anchor="middle">T+10</text>
    <text x="400" y="252" font-family="system-ui, -apple-system, sans-serif" font-size="10" font-weight="400" fill="#374151" text-anchor="middle">T+15</text>
    <text x="550" y="252" font-family="system-ui, -apple-system, sans-serif" font-size="10" font-weight="400" fill="#374151" text-anchor="middle">T+20</text>
    <text x="700" y="252" font-family="system-ui, -apple-system, sans-serif" font-size="10" font-weight="400" fill="#374151" text-anchor="middle">T+30</text>
    <text x="400" y="272" font-family="system-ui, -apple-system, sans-serif" font-size="11" font-weight="700" fill="#111827" text-anchor="middle">Time (minutes)</text>
    
    <!-- Grid lines -->
    <line x1="35" y1="45" x2="795" y2="45" stroke="#e5e7eb" stroke-width="1" stroke-dasharray="4,4"/>
    <line x1="35" y1="95" x2="795" y2="95" stroke="#e5e7eb" stroke-width="1" stroke-dasharray="4,4"/>
    <line x1="35" y1="145" x2="795" y2="145" stroke="#e5e7eb" stroke-width="1" stroke-dasharray="4,4"/>
    <line x1="35" y1="195" x2="795" y2="195" stroke="#e5e7eb" stroke-width="1" stroke-dasharray="4,4"/>
    
    <!-- Phase background regions -->
    <rect x="35" y="25" width="165" height="210" fill="#dcfce7" opacity="0.3"/>
    <rect x="365" y="25" width="165" height="210" fill="#fee2e2" opacity="0.4"/>
    <rect x="530" y="25" width="130" height="210" fill="#fee2e2" opacity="0.3"/>
    <rect x="660" y="25" width="135" height="210" fill="#dcfce7" opacity="0.2"/>
    
    <!-- Phase labels on graph -->
    <text x="117" y="40" font-family="system-ui, -apple-system, sans-serif" font-size="10" font-weight="700" fill="#16a34a" text-anchor="middle">NORMAL</text>
    <text x="447" y="40" font-family="system-ui, -apple-system, sans-serif" font-size="10" font-weight="700" fill="#dc2626" text-anchor="middle">SPIKE</text>
    <text x="595" y="40" font-family="system-ui, -apple-system, sans-serif" font-size="10" font-weight="700" fill="#dc2626" text-anchor="middle">CRISIS</text>
    <text x="727" y="40" font-family="system-ui, -apple-system, sans-serif" font-size="10" font-weight="700" fill="#16a34a" text-anchor="middle">RECOVER</text>
    
    <!-- DB Load area (blue gradient) -->
    <path d="M 100 215 L 250 210 L 400 90 L 480 45 L 550 40 L 620 60 L 700 140 L 760 195 L 795 210 L 795 235 L 35 235 L 35 215 Z" fill="url(#normalGrad)" opacity="0.6"/>
    <polyline points="100,215 250,210 400,90 480,45 550,40 620,60 700,140 760,195 795,210" fill="none" stroke="#3b82f6" stroke-width="3"/>
    
    <!-- Request Rate line (red) -->
    <polyline points="100,210 250,205 365,180 400,60 480,30 550,28 620,70 700,155 760,195 795,210" fill="none" stroke="#dc2626" stroke-width="3"/>
    
    <!-- Spike peak annotation -->
    <line x1="480" y1="30" x2="480" y2="15" stroke="#dc2626" stroke-width="2"/>
    <text x="480" y="12" font-family="system-ui, -apple-system, sans-serif" font-size="11" font-weight="700" fill="#dc2626" text-anchor="middle">Peak: 18K req/s</text>
    
    <!-- Cache expiry annotation -->
    <line x1="365" y1="180" x2="365" y2="155" stroke="#f97316" stroke-width="2"/>
    <text x="365" y="150" font-family="system-ui, -apple-system, sans-serif" font-size="10" font-weight="700" fill="#f97316" text-anchor="middle">Hot keys expire</text>
    
    <!-- DB threshold line -->
    <line x1="35" y1="70" x2="795" y2="70" stroke="#dc2626" stroke-width="2" stroke-dasharray="6,4"/>
    <text x="790" y="65" font-family="system-ui, -apple-system, sans-serif" font-size="9" font-weight="700" fill="#dc2626" text-anchor="end">DB Capacity Limit</text>
    
    <!-- Legend -->
    <rect x="580" y="200" width="12" height="3" fill="#dc2626"/>
    <text x="598" y="204" font-family="system-ui, -apple-system, sans-serif" font-size="10" font-weight="400" fill="#374151">Request Rate</text>
    <rect x="690" y="200" width="12" height="3" fill="#3b82f6"/>
    <text x="708" y="204" font-family="system-ui, -apple-system, sans-serif" font-size="10" font-weight="400" fill="#374151">DB Load %</text>
  </g>

  <!-- TTL Comparison: Uniform vs Staggered -->
  <g transform="translate(50, 555)">
    <text x="400" y="0" font-family="system-ui, -apple-system, sans-serif" font-size="14" font-weight="700" fill="#111827" text-anchor="middle">TTL Distribution Impact</text>
    
    <!-- Uniform TTL -->
    <g transform="translate(0, 20)">
      <text x="180" y="0" font-family="system-ui, -apple-system, sans-serif" font-size="12" font-weight="700" fill="#dc2626" text-anchor="middle">Uniform TTL (Problem)</text>
      <rect x="30" y="10" width="300" height="40" fill="#fee2e2" stroke="#dc2626" stroke-width="2" rx="4"/>
      <text x="180" y="35" font-family="system-ui, -apple-system, sans-serif" font-size="11" font-weight="400" fill="#1f2937" text-anchor="middle">All keys expire simultaneously &#8594; Massive spike</text>
      
      <!-- Expiry bars -->
      <rect x="50" y="60" width="8" height="25" fill="#f97316" rx="2"/>
      <rect x="60" y="60" width="8" height="25" fill="#f97316" rx="2"/>
      <rect x="70" y="60" width="8" height="25" fill="#f97316" rx="2"/>
      <rect x="80" y="60" width="8" height="25" fill="#f97316" rx="2"/>
      <rect x="90" y="60" width="8" height="25" fill="#f97316" rx="2"/>
      <rect x="100" y="60" width="8" height="25" fill="#f97316" rx="2"/>
      <rect x="110" y="60" width="8" height="25" fill="#f97316" rx="2"/>
      <rect x="120" y="60" width="8" height="25" fill="#f97316" rx="2"/>
      <rect x="130" y="60" width="8" height="25" fill="#f97316" rx="2"/>
      <rect x="140" y="60" width="8" height="25" fill="#f97316" rx="2"/>
      <rect x="150" y="60" width="8" height="25" fill="#f97316" rx="2"/>
      <rect x="160" y="60" width="8" height="25" fill="#f97316" rx="2"/>
      <rect x="170" y="60" width="8" height="25" fill="#f97316" rx="2"/>
      <rect x="180" y="60" width="8" height="25" fill="#f97316" rx="2"/>
      <rect x="190" y="60" width="8" height="25" fill="#f97316" rx="2"/>
      <rect x="200" y="60" width="8" height="25" fill="#f97316" rx="2"/>
      <rect x="210" y="60" width="8" height="25" fill="#f97316" rx="2"/>
      <rect x="220" y="60" width="8" height="25" fill="#f97316" rx="2"/>
      <rect x="230" y="60" width="8" height="25" fill="#f97316" rx="2"/>
      <rect x="240" y="60" width="8" height="25" fill="#f97316" rx="2"/>
      <rect x="250" y="60" width="8" height="25" fill="#f97316" rx="2"/>
      <rect x="260" y="60" width="8" height="25" fill="#f97316" rx="2"/>
      <rect x="270" y="60" width="8" height="25" fill="#f97316" rx="2"/>
      <rect x="280" y="60" width="8" height="25" fill="#f97316" rx="2"/>
      <rect x="290" y="60" width="8" height="25" fill="#f97316" rx="2"/>
      <rect x="300" y="60" width="8" height="25" fill="#f97316" rx="2"/>
      <text x="180" y="100" font-family="system-ui, -apple-system, sans-serif" font-size="10" font-weight="400" fill="#374151" text-anchor="middle">TTL=300s for all keys</text>
    </g>
    
    <!-- Staggered TTL -->
    <g transform="translate(400, 20)">
      <text x="180" y="0" font-family="system-ui, -apple-system, sans-serif" font-size="12" font-weight="700" fill="#16a34a" text-anchor="middle">Staggered TTL (Solution)</text>
      <rect x="30" y="10" width="300" height="40" fill="#dcfce7" stroke="#16a34a" stroke-width="2" rx="4"/>
      <text x="180" y="35" font-family="system-ui, -apple-system, sans-serif" font-size="11" font-weight="400" fill="#1f2937" text-anchor="middle">Keys expire gradually &#8594; Smooth load</text>
      
      <!-- Expiry bars spread out -->
      <rect x="50" y="60" width="8" height="10" fill="#16a34a" rx="2"/>
      <rect x="80" y="60" width="8" height="15" fill="#16a34a" rx="2"/>
      <rect x="110" y="60" width="8" height="12" fill="#16a34a" rx="2"/>
      <rect x="140" y="60" width="8" height="18" fill="#16a34a" rx="2"/>
      <rect x="170" y="60" width="8" height="14" fill="#16a34a" rx="2"/>
      <rect x="200" y="60" width="8" height="11" fill="#16a34a" rx="2"/>
      <rect x="230" y="60" width="8" height="16" fill="#16a34a" rx="2"/>
      <rect x="260" y="60" width="8" height="13" fill="#16a34a" rx="2"/>
      <rect x="290" y="60" width="8" height="17" fill="#16a34a" rx="2"/>
      <rect x="320" y="60" width="8" height="10" fill="#16a34a" rx="2"/>
      <text x="180" y="100" font-family="system-ui, -apple-system, sans-serif" font-size="10" font-weight="400" fill="#374151" text-anchor="middle">TTL=270-330s with jitter</text>
    </g>
  </g>
</svg>
