<svg viewBox="0 0 900 550" xmlns="http://www.w3.org/2000/svg">
  <rect width="900" height="550" rx="12" fill="#ffffff"/>
  <text x="450" y="40" text-anchor="middle" font-family="system-ui, sans-serif" font-size="18" font-weight="700" fill="#1a1a2e">Shared Workers Architecture</text>
  <rect x="50" y="80" width="180" height="120" rx="8" fill="#f0f9ff" stroke="#0284c7" stroke-width="2"/>
  <text x="140" y="125" text-anchor="middle" font-family="system-ui, sans-serif" font-size="12" font-weight="600" fill="#0c4a6e">Tab 1</text>
  <rect x="50" y="210" width="180" height="120" rx="8" fill="#f0f9ff" stroke="#0284c7" stroke-width="2"/>
  <text x="140" y="255" text-anchor="middle" font-family="system-ui, sans-serif" font-size="12" font-weight="600" fill="#0c4a6e">Tab 2</text>
  <rect x="50" y="340" width="180" height="120" rx="8" fill="#f0f9ff" stroke="#0284c7" stroke-width="2"/>
  <text x="140" y="385" text-anchor="middle" font-family="system-ui, sans-serif" font-size="12" font-weight="600" fill="#0c4a6e">Tab 3</text>
  <rect x="300" y="150" width="300" height="260" rx="8" fill="#faf5ff" stroke="#7c3aed" stroke-width="2"/>
  <text x="450" y="185" text-anchor="middle" font-family="system-ui, sans-serif" font-size="14" font-weight="600" fill="#6b21a8">Shared Worker</text>
  <rect x="320" y="210" width="260" height="35" rx="4" fill="#f3e8ff" stroke="#a855f7"/>
  <text x="450" y="232" text-anchor="middle" font-family="system-ui, sans-serif" font-size="10" fill="#6b21a8">Port 1 (Tab 1)</text>
  <rect x="320" y="255" width="260" height="35" rx="4" fill="#f3e8ff" stroke="#a855f7"/>
  <text x="450" y="277" text-anchor="middle" font-family="system-ui, sans-serif" font-size="10" fill="#6b21a8">Port 2 (Tab 2)</text>
  <rect x="320" y="300" width="260" height="35" rx="4" fill="#f3e8ff" stroke="#a855f7"/>
  <text x="450" y="322" text-anchor="middle" font-family="system-ui, sans-serif" font-size="10" fill="#6b21a8">Port 3 (Tab 3)</text>
  <rect x="320" y="355" width="260" height="35" rx="4" fill="#f3e8ff" stroke="#a855f7"/>
  <text x="450" y="377" text-anchor="middle" font-family="system-ui, sans-serif" font-size="10" fill="#6b21a8">Shared State</text>
  <rect x="650" y="150" width="200" height="120" rx="8" fill="#dcfce7" stroke="#22c55e" stroke-width="2"/>
  <text x="750" y="195" text-anchor="middle" font-family="system-ui, sans-serif" font-size="12" font-weight="600" fill="#15803d">Message Router</text>
  <rect x="650" y="280" width="200" height="120" rx="8" fill="#fef3c7" stroke="#f59e0b" stroke-width="2"/>
  <text x="750" y="325" text-anchor="middle" font-family="system-ui, sans-serif" font-size="12" font-weight="600" fill="#b45309">Event Handlers</text>
  <rect x="50" y="480" width="800" height="50" rx="8" fill="#f8fafc" stroke="#e2e8f0"/>
  <text x="450" y="510" text-anchor="middle" font-family="system-ui, sans-serif" font-size="11" fill="#475560">Single worker instance shared across tabs | Port-based communication | Shared state across all connected contexts</text>
</svg>
