<svg viewBox="0 0 900 500" xmlns="http://www.w3.org/2000/svg" font-family="system-ui, sans-serif">
  <rect width="900" height="500" fill="#f3f1f8" rx="8"/>

  <text x="450" y="35" text-anchor="middle" font-size="18" font-weight="bold" fill="#1a1822">Throttle: Execute at Fixed Intervals</text>
  <text x="450" y="55" text-anchor="middle" font-size="12" fill="#6d5bd0">interval = 200ms</text>

  <!-- Time axis -->
  <line x1="80" y1="420" x2="850" y2="420" stroke="#1a1822" stroke-width="2"/>
  <text x="850" y="440" text-anchor="end" font-size="11" fill="#1a1822">Time (ms)</text>

  <!-- Time markers -->
  <line x1="100" y1="415" x2="100" y2="425" stroke="#1a1822" stroke-width="1.5"/>
  <text x="100" y="442" text-anchor="middle" font-size="9" fill="#1a1822">0</text>
  <line x1="220" y1="415" x2="220" y2="425" stroke="#1a1822" stroke-width="1.5"/>
  <text x="220" y="442" text-anchor="middle" font-size="9" fill="#1a1822">200</text>
  <line x1="340" y1="415" x2="340" y2="425" stroke="#1a1822" stroke-width="1.5"/>
  <text x="340" y="442" text-anchor="middle" font-size="9" fill="#1a1822">400</text>
  <line x1="460" y1="415" x2="460" y2="425" stroke="#1a1822" stroke-width="1.5"/>
  <text x="460" y="442" text-anchor="middle" font-size="9" fill="#1a1822">600</text>
  <line x1="580" y1="415" x2="580" y2="425" stroke="#1a1822" stroke-width="1.5"/>
  <text x="580" y="442" text-anchor="middle" font-size="9" fill="#1a1822">800</text>
  <line x1="700" y1="415" x2="700" y2="425" stroke="#1a1822" stroke-width="1.5"/>
  <text x="700" y="442" text-anchor="middle" font-size="9" fill="#1a1822">1000</text>
  <line x1="820" y1="415" x2="820" y2="425" stroke="#1a1822" stroke-width="1.5"/>
  <text x="820" y="442" text-anchor="middle" font-size="9" fill="#1a1822">1200</text>

  <!-- Row 1: Continuous scroll events -->
  <text x="50" y="105" text-anchor="end" font-size="12" font-weight="600" fill="#1a1822">Scroll</text>
  <text x="50" y="120" text-anchor="end" font-size="12" font-weight="600" fill="#1a1822">Events</text>
  <line x1="80" y1="110" x2="850" y2="110" stroke="#ddd" stroke-width="1"/>

  <!-- Continuous scroll events at ~60fps (every ~17ms) - show many bars -->
  <g opacity="0.8">
    <line x1="100" y1="88" x2="100" y2="110" stroke="#6d5bd0" stroke-width="2"/>
    <line x1="110" y1="88" x2="110" y2="110" stroke="#6d5bd0" stroke-width="2"/>
    <line x1="120" y1="88" x2="120" y2="110" stroke="#6d5bd0" stroke-width="2"/>
    <line x1="130" y1="88" x2="130" y2="110" stroke="#6d5bd0" stroke-width="2"/>
    <line x1="140" y1="88" x2="140" y2="110" stroke="#6d5bd0" stroke-width="2"/>
    <line x1="150" y1="88" x2="150" y2="110" stroke="#6d5bd0" stroke-width="2"/>
    <line x1="160" y1="88" x2="160" y2="110" stroke="#6d5bd0" stroke-width="2"/>
    <line x1="170" y1="88" x2="170" y2="110" stroke="#6d5bd0" stroke-width="2"/>
    <line x1="180" y1="88" x2="180" y2="110" stroke="#6d5bd0" stroke-width="2"/>
    <line x1="190" y1="88" x2="190" y2="110" stroke="#6d5bd0" stroke-width="2"/>
    <line x1="200" y1="88" x2="200" y2="110" stroke="#6d5bd0" stroke-width="2"/>
    <line x1="210" y1="88" x2="210" y2="110" stroke="#6d5bd0" stroke-width="2"/>
    <line x1="220" y1="88" x2="220" y2="110" stroke="#6d5bd0" stroke-width="2"/>
    <line x1="230" y1="88" x2="230" y2="110" stroke="#6d5bd0" stroke-width="2"/>
    <line x1="240" y1="88" x2="240" y2="110" stroke="#6d5bd0" stroke-width="2"/>
    <line x1="250" y1="88" x2="250" y2="110" stroke="#6d5bd0" stroke-width="2"/>
    <line x1="260" y1="88" x2="260" y2="110" stroke="#6d5bd0" stroke-width="2"/>
    <line x1="270" y1="88" x2="270" y2="110" stroke="#6d5bd0" stroke-width="2"/>
    <line x1="280" y1="88" x2="280" y2="110" stroke="#6d5bd0" stroke-width="2"/>
    <line x1="290" y1="88" x2="290" y2="110" stroke="#6d5bd0" stroke-width="2"/>
    <line x1="300" y1="88" x2="300" y2="110" stroke="#6d5bd0" stroke-width="2"/>
    <line x1="310" y1="88" x2="310" y2="110" stroke="#6d5bd0" stroke-width="2"/>
    <line x1="320" y1="88" x2="320" y2="110" stroke="#6d5bd0" stroke-width="2"/>
    <line x1="330" y1="88" x2="330" y2="110" stroke="#6d5bd0" stroke-width="2"/>
    <line x1="340" y1="88" x2="340" y2="110" stroke="#6d5bd0" stroke-width="2"/>
    <line x1="350" y1="88" x2="350" y2="110" stroke="#6d5bd0" stroke-width="2"/>
    <line x1="360" y1="88" x2="360" y2="110" stroke="#6d5bd0" stroke-width="2"/>
    <line x1="370" y1="88" x2="370" y2="110" stroke="#6d5bd0" stroke-width="2"/>
    <line x1="380" y1="88" x2="380" y2="110" stroke="#6d5bd0" stroke-width="2"/>
    <line x1="390" y1="88" x2="390" y2="110" stroke="#6d5bd0" stroke-width="2"/>
    <line x1="400" y1="88" x2="400" y2="110" stroke="#6d5bd0" stroke-width="2"/>
    <line x1="410" y1="88" x2="410" y2="110" stroke="#6d5bd0" stroke-width="2"/>
    <line x1="420" y1="88" x2="420" y2="110" stroke="#6d5bd0" stroke-width="2"/>
    <line x1="430" y1="88" x2="430" y2="110" stroke="#6d5bd0" stroke-width="2"/>
    <line x1="440" y1="88" x2="440" y2="110" stroke="#6d5bd0" stroke-width="2"/>
    <line x1="450" y1="88" x2="450" y2="110" stroke="#6d5bd0" stroke-width="2"/>
    <line x1="460" y1="88" x2="460" y2="110" stroke="#6d5bd0" stroke-width="2"/>
    <line x1="470" y1="88" x2="470" y2="110" stroke="#6d5bd0" stroke-width="2"/>
    <line x1="480" y1="88" x2="480" y2="110" stroke="#6d5bd0" stroke-width="2"/>
    <line x1="490" y1="88" x2="490" y2="110" stroke="#6d5bd0" stroke-width="2"/>
    <line x1="500" y1="88" x2="500" y2="110" stroke="#6d5bd0" stroke-width="2"/>
    <line x1="510" y1="88" x2="510" y2="110" stroke="#6d5bd0" stroke-width="2"/>
    <line x1="520" y1="88" x2="520" y2="110" stroke="#6d5bd0" stroke-width="2"/>
    <line x1="530" y1="88" x2="530" y2="110" stroke="#6d5bd0" stroke-width="2"/>
    <line x1="540" y1="88" x2="540" y2="110" stroke="#6d5bd0" stroke-width="2"/>
    <line x1="550" y1="88" x2="550" y2="110" stroke="#6d5bd0" stroke-width="2"/>
    <line x1="560" y1="88" x2="560" y2="110" stroke="#6d5bd0" stroke-width="2"/>
    <line x1="570" y1="88" x2="570" y2="110" stroke="#6d5bd0" stroke-width="2"/>
    <line x1="580" y1="88" x2="580" y2="110" stroke="#6d5bd0" stroke-width="2"/>
    <line x1="590" y1="88" x2="590" y2="110" stroke="#6d5bd0" stroke-width="2"/>
    <line x1="600" y1="88" x2="600" y2="110" stroke="#6d5bd0" stroke-width="2"/>
    <line x1="610" y1="88" x2="610" y2="110" stroke="#6d5bd0" stroke-width="2"/>
    <line x1="620" y1="88" x2="620" y2="110" stroke="#6d5bd0" stroke-width="2"/>
    <line x1="630" y1="88" x2="630" y2="110" stroke="#6d5bd0" stroke-width="2"/>
    <line x1="640" y1="88" x2="640" y2="110" stroke="#6d5bd0" stroke-width="2"/>
    <line x1="650" y1="88" x2="650" y2="110" stroke="#6d5bd0" stroke-width="2"/>
    <line x1="660" y1="88" x2="660" y2="110" stroke="#6d5bd0" stroke-width="2"/>
    <line x1="670" y1="88" x2="670" y2="110" stroke="#6d5bd0" stroke-width="2"/>
    <line x1="680" y1="88" x2="680" y2="110" stroke="#6d5bd0" stroke-width="2"/>
    <line x1="690" y1="88" x2="690" y2="110" stroke="#6d5bd0" stroke-width="2"/>
    <line x1="700" y1="88" x2="700" y2="110" stroke="#6d5bd0" stroke-width="2"/>
  </g>
  <text x="400" y="82" text-anchor="middle" font-size="10" fill="#6d5bd0">~60 scroll events per second (one every ~17ms)</text>

  <!-- Row 2: Throttle intervals -->
  <text x="50" y="185" text-anchor="end" font-size="12" font-weight="600" fill="#1a1822">Throttle</text>
  <text x="50" y="200" text-anchor="end" font-size="12" font-weight="600" fill="#1a1822">Windows</text>
  <line x1="80" y1="190" x2="850" y2="190" stroke="#ddd" stroke-width="1"/>

  <!-- 200ms interval windows -->
  <rect x="100" y="160" width="120" height="25" rx="4" fill="#d97843" opacity="0.12" stroke="#d97843" stroke-width="1"/>
  <text x="160" y="177" text-anchor="middle" font-size="9" fill="#d97843">200ms window</text>

  <rect x="220" y="160" width="120" height="25" rx="4" fill="#d97843" opacity="0.12" stroke="#d97843" stroke-width="1"/>
  <text x="280" y="177" text-anchor="middle" font-size="9" fill="#d97843">200ms window</text>

  <rect x="340" y="160" width="120" height="25" rx="4" fill="#d97843" opacity="0.12" stroke="#d97843" stroke-width="1"/>
  <text x="400" y="177" text-anchor="middle" font-size="9" fill="#d97843">200ms window</text>

  <rect x="460" y="160" width="120" height="25" rx="4" fill="#d97843" opacity="0.12" stroke="#d97843" stroke-width="1"/>
  <text x="520" y="177" text-anchor="middle" font-size="9" fill="#d97843">200ms window</text>

  <rect x="580" y="160" width="120" height="25" rx="4" fill="#d97843" opacity="0.12" stroke="#d97843" stroke-width="1"/>
  <text x="640" y="177" text-anchor="middle" font-size="9" fill="#d97843">200ms window</text>

  <!-- Row 3: Throttled output -->
  <text x="50" y="265" text-anchor="end" font-size="12" font-weight="600" fill="#1a1822">Throttled</text>
  <text x="50" y="280" text-anchor="end" font-size="12" font-weight="600" fill="#2f9d74">Output</text>
  <line x1="80" y1="270" x2="850" y2="270" stroke="#ddd" stroke-width="1"/>

  <!-- Execution at start of each interval -->
  <line x1="100" y1="245" x2="100" y2="270" stroke="#2f9d74" stroke-width="4"/>
  <circle cx="100" cy="242" r="6" fill="#2f9d74"/>
  <text x="100" y="234" text-anchor="middle" font-size="9" fill="#2f9d74" font-weight="bold">exec</text>

  <line x1="220" y1="245" x2="220" y2="270" stroke="#2f9d74" stroke-width="4"/>
  <circle cx="220" cy="242" r="6" fill="#2f9d74"/>
  <text x="220" y="234" text-anchor="middle" font-size="9" fill="#2f9d74" font-weight="bold">exec</text>

  <line x1="340" y1="245" x2="340" y2="270" stroke="#2f9d74" stroke-width="4"/>
  <circle cx="340" cy="242" r="6" fill="#2f9d74"/>
  <text x="340" y="234" text-anchor="middle" font-size="9" fill="#2f9d74" font-weight="bold">exec</text>

  <line x1="460" y1="245" x2="460" y2="270" stroke="#2f9d74" stroke-width="4"/>
  <circle cx="460" cy="242" r="6" fill="#2f9d74"/>
  <text x="460" y="234" text-anchor="middle" font-size="9" fill="#2f9d74" font-weight="bold">exec</text>

  <line x1="580" y1="245" x2="580" y2="270" stroke="#2f9d74" stroke-width="4"/>
  <circle cx="580" cy="242" r="6" fill="#2f9d74"/>
  <text x="580" y="234" text-anchor="middle" font-size="9" fill="#2f9d74" font-weight="bold">exec</text>

  <line x1="700" y1="245" x2="700" y2="270" stroke="#2f9d74" stroke-width="4"/>
  <circle cx="700" cy="242" r="6" fill="#2f9d74"/>
  <text x="700" y="234" text-anchor="middle" font-size="9" fill="#2f9d74" font-weight="bold">exec</text>

  <!-- Comparison box -->
  <rect x="100" y="310" width="700" height="85" rx="8" fill="white" stroke="#6d5bd0" stroke-width="1.5"/>

  <text x="450" y="332" text-anchor="middle" font-size="13" font-weight="bold" fill="#1a1822">Impact Over 1 Second of Scrolling</text>

  <rect x="130" y="345" width="280" height="40" rx="6" fill="#d97843" opacity="0.1" stroke="#d97843" stroke-width="1"/>
  <text x="270" y="362" text-anchor="middle" font-size="11" fill="#d97843" font-weight="600">Without throttle: ~60 executions</text>
  <text x="270" y="378" text-anchor="middle" font-size="10" fill="#d97843">Handler runs on every scroll event</text>

  <rect x="490" y="345" width="280" height="40" rx="6" fill="#2f9d74" opacity="0.1" stroke="#2f9d74" stroke-width="1"/>
  <text x="630" y="362" text-anchor="middle" font-size="11" fill="#2f9d74" font-weight="600">With throttle (200ms): 5 executions</text>
  <text x="630" y="378" text-anchor="middle" font-size="10" fill="#2f9d74">92% reduction, still smooth updates</text>

  <!-- Legend -->
  <rect x="200" y="470" width="16" height="3" fill="#6d5bd0"/>
  <text x="222" y="475" font-size="10" fill="#1a1822">Raw scroll event</text>
  <rect x="380" y="468" width="16" height="8" rx="2" fill="#d97843" opacity="0.12" stroke="#d97843" stroke-width="1"/>
  <text x="402" y="475" font-size="10" fill="#1a1822">Throttle interval</text>
  <circle cx="550" cy="472" r="4" fill="#2f9d74"/>
  <text x="560" y="475" font-size="10" fill="#1a1822">Throttled execution</text>
</svg>