<svg xmlns="http://www.w3.org/2000/svg" width="920" height="420" viewBox="0 0 920 420">
  <rect width="920" height="420" fill="#f8fafc"/>
  <rect x="30" y="30" width="860" height="360" rx="18" fill="#ffffff" stroke="#d7dbe2"/>
  <text x="60" y="70" font-family="Inter, Arial, sans-serif" font-size="20" fill="#1f2937">Pool Sizing</text>

  <rect x="90" y="120" width="320" height="220" rx="14" fill="#e2e8f0" stroke="#cbd5f5"/>
  <text x="120" y="150" font-family="Inter, Arial, sans-serif" font-size="14" fill="#334155">DB Max Connections</text>
  <rect x="120" y="180" width="260" height="28" rx="6" fill="#c7d2fe"/>
  <rect x="120" y="220" width="200" height="28" rx="6" fill="#e2e8f0"/>
  <rect x="120" y="260" width="160" height="28" rx="6" fill="#e2e8f0"/>
  <text x="120" y="310" font-family="Inter, Arial, sans-serif" font-size="12" fill="#334155">Reserve capacity</text>

  <rect x="470" y="120" width="360" height="220" rx="14" fill="#f1f5f9" stroke="#cbd5f5"/>
  <text x="500" y="150" font-family="Inter, Arial, sans-serif" font-size="14" fill="#334155">App Instances</text>
  <rect x="500" y="180" width="120" height="28" rx="6" fill="#c7d2fe"/>
  <rect x="640" y="180" width="120" height="28" rx="6" fill="#c7d2fe"/>
  <rect x="500" y="220" width="120" height="28" rx="6" fill="#c7d2fe"/>
  <rect x="640" y="220" width="120" height="28" rx="6" fill="#c7d2fe"/>
  <text x="500" y="270" font-family="Inter, Arial, sans-serif" font-size="12" fill="#334155">Pool size per instance</text>
</svg>
