<svg xmlns="http://www.w3.org/2000/svg" width="920" height="420" viewBox="0 0 920 420">
  <rect width="920" height="420" fill="#f8fafc"/>
  <rect x="30" y="30" width="860" height="360" rx="18" fill="#ffffff" stroke="#d7dbe2"/>
  <text x="60" y="70" font-family="Inter, Arial, sans-serif" font-size="20" fill="#1f2937">Primary + Read Replicas</text>

  <rect x="80" y="150" width="220" height="140" rx="14" fill="#c7d2fe" stroke="#8b9cf6"/>
  <text x="120" y="220" font-family="Inter, Arial, sans-serif" font-size="16" fill="#1f2937">Primary</text>
  <text x="100" y="245" font-family="Inter, Arial, sans-serif" font-size="12" fill="#1f2937">Writes + reads</text>

  <rect x="360" y="110" width="200" height="110" rx="12" fill="#e2e8f0" stroke="#cbd5f5"/>
  <text x="405" y="175" font-family="Inter, Arial, sans-serif" font-size="14" fill="#334155">Replica A</text>
  <rect x="360" y="230" width="200" height="110" rx="12" fill="#e2e8f0" stroke="#cbd5f5"/>
  <text x="405" y="295" font-family="Inter, Arial, sans-serif" font-size="14" fill="#334155">Replica B</text>
  <rect x="600" y="170" width="200" height="110" rx="12" fill="#e2e8f0" stroke="#cbd5f5"/>
  <text x="645" y="235" font-family="Inter, Arial, sans-serif" font-size="14" fill="#334155">Replica C</text>

  <path d="M300 200 L360 165" stroke="#64748b" stroke-width="2" marker-end="url(#arrow)"/>
  <path d="M300 220 L360 265" stroke="#64748b" stroke-width="2" marker-end="url(#arrow)"/>
  <path d="M300 210 L600 215" stroke="#64748b" stroke-width="2" marker-end="url(#arrow)"/>
  <text x="320" y="120" font-family="Inter, Arial, sans-serif" font-size="12" fill="#64748b">Log stream</text>

  <defs>
    <marker id="arrow" markerWidth="10" markerHeight="10" refX="8" refY="3" orient="auto">
      <path d="M0,0 L10,3 L0,6 Z" fill="#64748b"/>
    </marker>
  </defs>
</svg>
