<svg xmlns="http://www.w3.org/2000/svg" viewBox="0 0 900 500" font-family="system-ui, sans-serif">
  <rect width="900" height="500" fill="#f3f1f8"/>
  <text x="450" y="32" text-anchor="middle" font-size="19" font-weight="700" fill="#1a1822">N-Queens — Place N Queens on N×N Board, No Two Attacking</text>

  <rect x="40" y="60" width="380" height="380" fill="#fff" stroke="#6d5bd0" stroke-width="2" rx="6"/>
  <text x="60" y="85" font-size="13" font-weight="700" fill="#6d5bd0">A solution for n=8</text>
  <g transform="translate(60,100)">
    <g>
      <rect x="0" y="0" width="40" height="40" fill="#fff" stroke="#1a1822"/>
      <rect x="40" y="0" width="40" height="40" fill="#a89bec" stroke="#1a1822"/>
      <rect x="80" y="0" width="40" height="40" fill="#fff" stroke="#1a1822"/>
      <rect x="120" y="0" width="40" height="40" fill="#a89bec" stroke="#1a1822"/>
      <rect x="160" y="0" width="40" height="40" fill="#fff" stroke="#1a1822"/>
      <rect x="200" y="0" width="40" height="40" fill="#a89bec" stroke="#1a1822"/>
      <rect x="240" y="0" width="40" height="40" fill="#fff" stroke="#1a1822"/>
      <rect x="280" y="0" width="40" height="40" fill="#a89bec" stroke="#1a1822"/>
    </g>
    <g transform="translate(0,40)">
      <rect x="0" y="0" width="40" height="40" fill="#a89bec" stroke="#1a1822"/>
      <rect x="40" y="0" width="40" height="40" fill="#fff" stroke="#1a1822"/>
      <rect x="80" y="0" width="40" height="40" fill="#a89bec" stroke="#1a1822"/>
      <rect x="120" y="0" width="40" height="40" fill="#fff" stroke="#1a1822"/>
      <rect x="160" y="0" width="40" height="40" fill="#a89bec" stroke="#1a1822"/>
      <rect x="200" y="0" width="40" height="40" fill="#fff" stroke="#1a1822"/>
      <rect x="240" y="0" width="40" height="40" fill="#a89bec" stroke="#1a1822"/>
      <rect x="280" y="0" width="40" height="40" fill="#fff" stroke="#1a1822"/>
    </g>
    <g transform="translate(0,80)">
      <rect x="0" y="0" width="40" height="40" fill="#fff" stroke="#1a1822"/><rect x="40" y="0" width="40" height="40" fill="#a89bec" stroke="#1a1822"/><rect x="80" y="0" width="40" height="40" fill="#fff" stroke="#1a1822"/><rect x="120" y="0" width="40" height="40" fill="#a89bec" stroke="#1a1822"/><rect x="160" y="0" width="40" height="40" fill="#fff" stroke="#1a1822"/><rect x="200" y="0" width="40" height="40" fill="#a89bec" stroke="#1a1822"/><rect x="240" y="0" width="40" height="40" fill="#fff" stroke="#1a1822"/><rect x="280" y="0" width="40" height="40" fill="#a89bec" stroke="#1a1822"/>
    </g>
    <g transform="translate(0,120)">
      <rect x="0" y="0" width="40" height="40" fill="#a89bec" stroke="#1a1822"/><rect x="40" y="0" width="40" height="40" fill="#fff" stroke="#1a1822"/><rect x="80" y="0" width="40" height="40" fill="#a89bec" stroke="#1a1822"/><rect x="120" y="0" width="40" height="40" fill="#fff" stroke="#1a1822"/><rect x="160" y="0" width="40" height="40" fill="#a89bec" stroke="#1a1822"/><rect x="200" y="0" width="40" height="40" fill="#fff" stroke="#1a1822"/><rect x="240" y="0" width="40" height="40" fill="#a89bec" stroke="#1a1822"/><rect x="280" y="0" width="40" height="40" fill="#fff" stroke="#1a1822"/>
    </g>
    <g transform="translate(0,160)">
      <rect x="0" y="0" width="40" height="40" fill="#fff" stroke="#1a1822"/><rect x="40" y="0" width="40" height="40" fill="#a89bec" stroke="#1a1822"/><rect x="80" y="0" width="40" height="40" fill="#fff" stroke="#1a1822"/><rect x="120" y="0" width="40" height="40" fill="#a89bec" stroke="#1a1822"/><rect x="160" y="0" width="40" height="40" fill="#fff" stroke="#1a1822"/><rect x="200" y="0" width="40" height="40" fill="#a89bec" stroke="#1a1822"/><rect x="240" y="0" width="40" height="40" fill="#fff" stroke="#1a1822"/><rect x="280" y="0" width="40" height="40" fill="#a89bec" stroke="#1a1822"/>
    </g>
    <g transform="translate(0,200)">
      <rect x="0" y="0" width="40" height="40" fill="#a89bec" stroke="#1a1822"/><rect x="40" y="0" width="40" height="40" fill="#fff" stroke="#1a1822"/><rect x="80" y="0" width="40" height="40" fill="#a89bec" stroke="#1a1822"/><rect x="120" y="0" width="40" height="40" fill="#fff" stroke="#1a1822"/><rect x="160" y="0" width="40" height="40" fill="#a89bec" stroke="#1a1822"/><rect x="200" y="0" width="40" height="40" fill="#fff" stroke="#1a1822"/><rect x="240" y="0" width="40" height="40" fill="#a89bec" stroke="#1a1822"/><rect x="280" y="0" width="40" height="40" fill="#fff" stroke="#1a1822"/>
    </g>
    <g transform="translate(0,240)">
      <rect x="0" y="0" width="40" height="40" fill="#fff" stroke="#1a1822"/><rect x="40" y="0" width="40" height="40" fill="#a89bec" stroke="#1a1822"/><rect x="80" y="0" width="40" height="40" fill="#fff" stroke="#1a1822"/><rect x="120" y="0" width="40" height="40" fill="#a89bec" stroke="#1a1822"/><rect x="160" y="0" width="40" height="40" fill="#fff" stroke="#1a1822"/><rect x="200" y="0" width="40" height="40" fill="#a89bec" stroke="#1a1822"/><rect x="240" y="0" width="40" height="40" fill="#fff" stroke="#1a1822"/><rect x="280" y="0" width="40" height="40" fill="#a89bec" stroke="#1a1822"/>
    </g>
    <g transform="translate(0,280)">
      <rect x="0" y="0" width="40" height="40" fill="#a89bec" stroke="#1a1822"/><rect x="40" y="0" width="40" height="40" fill="#fff" stroke="#1a1822"/><rect x="80" y="0" width="40" height="40" fill="#a89bec" stroke="#1a1822"/><rect x="120" y="0" width="40" height="40" fill="#fff" stroke="#1a1822"/><rect x="160" y="0" width="40" height="40" fill="#a89bec" stroke="#1a1822"/><rect x="200" y="0" width="40" height="40" fill="#fff" stroke="#1a1822"/><rect x="240" y="0" width="40" height="40" fill="#a89bec" stroke="#1a1822"/><rect x="280" y="0" width="40" height="40" fill="#fff" stroke="#1a1822"/>
    </g>
    <g font-size="20" text-anchor="middle" font-weight="700" fill="#cc4444">
      <text x="20" y="28">♛</text>
      <text x="180" y="68">♛</text>
      <text x="300" y="108">♛</text>
      <text x="220" y="148">♛</text>
      <text x="60" y="188">♛</text>
      <text x="260" y="228">♛</text>
      <text x="100" y="268">♛</text>
      <text x="140" y="308">♛</text>
    </g>
  </g>

  <rect x="440" y="60" width="420" height="195" fill="#fff" stroke="#4caf50" stroke-width="2" rx="6"/>
  <text x="460" y="85" font-size="13" font-weight="700" fill="#4caf50">Constraints — three sets to track</text>
  <text x="460" y="115" font-size="11">• cols[c] = column c is occupied</text>
  <text x="460" y="135" font-size="11">• diag1[r − c + n − 1] = / diagonal occupied</text>
  <text x="460" y="155" font-size="11">• diag2[r + c] = \ diagonal occupied</text>
  <text x="460" y="180" font-size="11">Each row gets one queen → branching factor n.</text>
  <text x="460" y="200" font-size="11">A queen in (r, c) blocks (r, c), the / diagonal r−c,</text>
  <text x="460" y="218" font-size="11">and the \ diagonal r+c. Constant-time check via bitmasks.</text>
  <text x="460" y="244" font-size="11" font-weight="700" fill="#4caf50">Bitmask version uses 3 ints; runs to n≈32 in &lt;1s.</text>

  <rect x="440" y="275" width="420" height="165" fill="#fff" stroke="#6d5bd0" stroke-width="2" rx="6"/>
  <text x="460" y="300" font-size="13" font-weight="700" fill="#6d5bd0">Solution counts</text>
  <g font-size="11">
    <text x="460" y="325">n=4 → 2 solutions</text>
    <text x="460" y="345">n=6 → 4</text>
    <text x="460" y="365">n=8 → 92</text>
    <text x="460" y="385">n=10 → 724</text>
    <text x="460" y="405">n=12 → 14 200</text>
    <text x="460" y="425">n=27 → 234 907 967 154 122 528 (current record)</text>
  </g>
</svg>
