<svg viewBox="0 0 900 500" xmlns="http://www.w3.org/2000/svg" font-family="system-ui, sans-serif">
  <rect width="900" height="500" fill="#f3f1f8"/>
  <text x="450" y="35" text-anchor="middle" font-size="18" font-weight="bold" fill="#1a1822">Suspense Boundary Nesting &amp; Loading Fallbacks</text>
  <rect x="30" y="55" width="840" height="425" rx="12" fill="none" stroke="#6d5bd0" stroke-width="3"/>
  <rect x="30" y="55" width="280" height="28" rx="12" fill="#6d5bd0"/>
  <text x="170" y="74" text-anchor="middle" font-size="11" font-weight="bold" fill="#fff">App-Level Suspense Boundary</text>
  <text x="720" y="74" font-size="9" fill="#6d5bd0">Fallback: Full-page spinner</text>
  <rect x="50" y="95" width="800" height="38" rx="6" fill="#6d5bd0"/>
  <text x="450" y="119" text-anchor="middle" font-size="12" font-weight="bold" fill="#fff">Header / Navigation (Static - No Suspense)</text>
  <rect x="50" y="148" width="520" height="315" rx="10" fill="none" stroke="#6d5bd0" stroke-width="2" stroke-dasharray="6"/>
  <rect x="50" y="148" width="260" height="24" rx="10" fill="#6d5bd0" opacity="0.8"/>
  <text x="180" y="165" text-anchor="middle" font-size="10" font-weight="bold" fill="#fff">Section Suspense: Main Content</text>
  <rect x="70" y="185" width="230" height="70" rx="6" fill="none" stroke="#d7d1e6" stroke-width="2"/>
  <rect x="70" y="185" width="140" height="20" rx="6" fill="#d7d1e6"/>
  <text x="140" y="199" text-anchor="middle" font-size="9" font-weight="bold" fill="#1a1822">Widget: Hero Banner</text>
  <rect x="82" y="213" width="205" height="15" rx="3" fill="#6d5bd0" opacity="0.15"/>
  <rect x="82" y="233" width="140" height="12" rx="3" fill="#6d5bd0" opacity="0.1"/>
  <rect x="70" y="270" width="230" height="180" rx="6" fill="none" stroke="#d7d1e6" stroke-width="2"/>
  <rect x="70" y="270" width="140" height="20" rx="6" fill="#d7d1e6"/>
  <text x="140" y="284" text-anchor="middle" font-size="9" font-weight="bold" fill="#1a1822">Widget: Content Feed</text>
  <rect x="82" y="298" width="205" height="22" rx="3" fill="#6d5bd0" opacity="0.15"/>
  <rect x="82" y="326" width="205" height="22" rx="3" fill="#6d5bd0" opacity="0.12"/>
  <rect x="82" y="354" width="205" height="22" rx="3" fill="#6d5bd0" opacity="0.09"/>
  <rect x="82" y="382" width="205" height="22" rx="3" fill="#6d5bd0" opacity="0.07"/>
  <text x="185" y="425" text-anchor="middle" font-size="8" fill="#6d5bd0">Fallback: Card skeleton x 4</text>
  <rect x="320" y="185" width="230" height="70" rx="6" fill="none" stroke="#d7d1e6" stroke-width="2"/>
  <rect x="320" y="185" width="160" height="20" rx="6" fill="#d7d1e6"/>
  <text x="400" y="199" text-anchor="middle" font-size="9" font-weight="bold" fill="#1a1822">Widget: Recommendations</text>
  <rect x="332" y="213" width="205" height="15" rx="3" fill="#6d5bd0" opacity="0.15"/>
  <rect x="332" y="233" width="120" height="12" rx="3" fill="#6d5bd0" opacity="0.1"/>
  <rect x="320" y="270" width="230" height="70" rx="6" fill="none" stroke="#d7d1e6" stroke-width="2"/>
  <rect x="320" y="270" width="140" height="20" rx="6" fill="#d7d1e6"/>
  <text x="390" y="284" text-anchor="middle" font-size="9" font-weight="bold" fill="#1a1822">Widget: Comments</text>
  <rect x="332" y="298" width="205" height="15" rx="3" fill="#6d5bd0" opacity="0.15"/>
  <rect x="332" y="318" width="160" height="12" rx="3" fill="#6d5bd0" opacity="0.1"/>
  <rect x="590" y="148" width="260" height="315" rx="10" fill="none" stroke="#6d5bd0" stroke-width="2" stroke-dasharray="6"/>
  <rect x="590" y="148" width="220" height="24" rx="10" fill="#6d5bd0" opacity="0.8"/>
  <text x="700" y="165" text-anchor="middle" font-size="10" font-weight="bold" fill="#fff">Section Suspense: Sidebar</text>
  <rect x="605" y="185" width="230" height="65" rx="6" fill="none" stroke="#d7d1e6" stroke-width="2"/>
  <rect x="605" y="185" width="130" height="20" rx="6" fill="#d7d1e6"/>
  <text x="670" y="199" text-anchor="middle" font-size="9" font-weight="bold" fill="#1a1822">Widget: Trending</text>
  <rect x="617" y="213" width="205" height="12" rx="3" fill="#6d5bd0" opacity="0.15"/>
  <rect x="617" y="230" width="140" height="10" rx="3" fill="#6d5bd0" opacity="0.1"/>
  <rect x="605" y="265" width="230" height="65" rx="6" fill="none" stroke="#d7d1e6" stroke-width="2"/>
  <rect x="605" y="265" width="100" height="20" rx="6" fill="#d7d1e6"/>
  <text x="655" y="279" text-anchor="middle" font-size="9" font-weight="bold" fill="#1a1822">Widget: Ads</text>
  <rect x="617" y="293" width="205" height="25" rx="3" fill="#6d5bd0" opacity="0.12"/>
  <rect x="605" y="345" width="230" height="65" rx="6" fill="none" stroke="#d7d1e6" stroke-width="2"/>
  <rect x="605" y="345" width="140" height="20" rx="6" fill="#d7d1e6"/>
  <text x="675" y="359" text-anchor="middle" font-size="9" font-weight="bold" fill="#1a1822">Widget: Related</text>
  <rect x="617" y="373" width="205" height="12" rx="3" fill="#6d5bd0" opacity="0.15"/>
  <rect x="617" y="390" width="140" height="10" rx="3" fill="#6d5bd0" opacity="0.1"/>
  <rect x="605" y="430" width="12" height="12" rx="2" fill="none" stroke="#6d5bd0" stroke-width="3"/>
  <text x="623" y="441" font-size="8" fill="#1a1822">App boundary</text>
  <rect x="700" y="430" width="12" height="12" rx="2" fill="none" stroke="#6d5bd0" stroke-width="2" stroke-dasharray="4"/>
  <text x="718" y="441" font-size="8" fill="#1a1822">Section</text>
  <rect x="770" y="430" width="12" height="12" rx="2" fill="none" stroke="#d7d1e6" stroke-width="2"/>
  <text x="788" y="441" font-size="8" fill="#1a1822">Widget</text>
</svg>
