<svg xmlns="http://www.w3.org/2000/svg" viewBox="0 0 900 500" font-family="system-ui, sans-serif">
  <rect width="900" height="500" rx="12" fill="#f3f1f8"/>
  <text x="450" y="36" text-anchor="middle" font-size="18" font-weight="bold" fill="#1a1822">Memory Leak: Detached Observers</text>

  <!-- Timeline -->
  <line x1="50" y1="470" x2="850" y2="470" stroke="#d7d1e6" stroke-width="2"/>
  <text x="50" y="495" font-size="11" fill="#1a1822">t=0 Mount</text>
  <text x="350" y="495" font-size="11" fill="#1a1822">t=1 Unmount</text>
  <text x="650" y="495" font-size="11" fill="#1a1822">t=2 State Change</text>
  <circle cx="50" cy="470" r="5" fill="#6d5bd0"/>
  <circle cx="370" cy="470" r="5" fill="#6d5bd0"/>
  <circle cx="670" cy="470" r="5" fill="#6d5bd0"/>

  <!-- Phase 1: Mount (left side) -->
  <text x="170" y="66" text-anchor="middle" font-size="14" font-weight="bold" fill="#6d5bd0">Phase 1: Component Mounts</text>

  <!-- Event Emitter / Store -->
  <rect x="30" y="80" width="150" height="70" rx="8" fill="#ffffff" stroke="#6d5bd0" stroke-width="2"/>
  <text x="105" y="100" text-anchor="middle" font-size="11" font-weight="bold" fill="#6d5bd0">EventEmitter</text>
  <text x="105" y="118" text-anchor="middle" font-size="10" fill="#1a1822">listeners: Set(1)</text>
  <text x="105" y="134" text-anchor="middle" font-size="9" fill="#1a1822">[ callback_ref ]</text>

  <!-- Component -->
  <rect x="220" y="80" width="150" height="70" rx="8" fill="#ffffff" stroke="#6d5bd0" stroke-width="2"/>
  <text x="295" y="100" text-anchor="middle" font-size="11" font-weight="bold" fill="#6d5bd0">MyComponent</text>
  <text x="295" y="118" text-anchor="middle" font-size="10" fill="#1a1822">useEffect(() =&amp;gt; {</text>
  <text x="295" y="134" text-anchor="middle" font-size="10" fill="#1a1822">  emitter.on(cb)</text>

  <!-- Arrow subscribe -->
  <line x1="220" y1="115" x2="180" y2="115" stroke="#6d5bd0" stroke-width="1.5"/>
  <polygon points="180,115 188,110 188,120" fill="#6d5bd0"/>
  <text x="200" y="108" text-anchor="middle" font-size="9" fill="#6d5bd0">subscribe</text>

  <!-- "No cleanup returned!" warning -->
  <rect x="230" y="158" width="130" height="28" rx="6" fill="#ffffff" stroke="#6d5bd0" stroke-width="1.5" stroke-dasharray="4,3"/>
  <text x="295" y="177" text-anchor="middle" font-size="10" font-weight="600" fill="#6d5bd0">No cleanup return!</text>

  <!-- Phase 2: Unmount (middle) -->
  <text x="520" y="66" text-anchor="middle" font-size="14" font-weight="bold" fill="#6d5bd0">Phase 2: Component Unmounts</text>

  <!-- Event Emitter still holding ref -->
  <rect x="400" y="80" width="150" height="70" rx="8" fill="#ffffff" stroke="#6d5bd0" stroke-width="2"/>
  <text x="475" y="100" text-anchor="middle" font-size="11" font-weight="bold" fill="#6d5bd0">EventEmitter</text>
  <text x="475" y="118" text-anchor="middle" font-size="10" fill="#1a1822">listeners: Set(1)</text>
  <text x="475" y="134" text-anchor="middle" font-size="9" fill="#1a1822">[ callback_ref ]</text>

  <!-- Ghost component -->
  <rect x="590" y="80" width="150" height="70" rx="8" fill="#ffffff" stroke="#d7d1e6" stroke-width="2" stroke-dasharray="6,4"/>
  <text x="665" y="100" text-anchor="middle" font-size="11" font-weight="bold" fill="#d7d1e6">MyComponent</text>
  <text x="665" y="118" text-anchor="middle" font-size="10" fill="#d7d1e6">UNMOUNTED</text>
  <text x="665" y="134" text-anchor="middle" font-size="10" fill="#d7d1e6">removed from tree</text>

  <!-- Dangling reference arrow -->
  <line x1="550" y1="115" x2="590" y2="115" stroke="#6d5bd0" stroke-width="2"/>
  <polygon points="590,115 582,110 582,120" fill="#6d5bd0"/>
  <text x="570" y="108" text-anchor="middle" font-size="8" fill="#6d5bd0">ref</text>

  <!-- X mark showing GC blocked -->
  <text x="665" y="170" text-anchor="middle" font-size="12" font-weight="bold" fill="#1a1822">GC cannot collect</text>
  <text x="665" y="186" text-anchor="middle" font-size="10" fill="#6d5bd0">(reference still held in Set)</text>

  <!-- Phase 3: Memory layout showing the problem -->
  <text x="450" y="220" text-anchor="middle" font-size="14" font-weight="bold" fill="#6d5bd0">Phase 3: State Change Fires Callback on Dead Component</text>

  <!-- Heap memory visualization -->
  <rect x="40" y="240" width="380" height="200" rx="10" fill="#ffffff" stroke="#d7d1e6" stroke-width="2"/>
  <text x="230" y="264" text-anchor="middle" font-size="12" font-weight="bold" fill="#1a1822">Heap Memory</text>

  <!-- Live objects -->
  <rect x="60" y="278" width="160" height="40" rx="6" fill="#6d5bd0"/>
  <text x="140" y="295" text-anchor="middle" font-size="11" font-weight="600" fill="#ffffff">EventEmitter</text>
  <text x="140" y="310" text-anchor="middle" font-size="9" fill="#ffffff">listeners.size = 1</text>

  <!-- Leaked closure -->
  <rect x="60" y="330" width="160" height="50" rx="6" fill="#ffffff" stroke="#6d5bd0" stroke-width="2" stroke-dasharray="4,3"/>
  <text x="140" y="348" text-anchor="middle" font-size="10" font-weight="600" fill="#6d5bd0">Leaked Closure</text>
  <text x="140" y="365" text-anchor="middle" font-size="9" fill="#1a1822">callback_ref</text>
  <text x="140" y="378" text-anchor="middle" font-size="8" fill="#1a1822">closes over stale scope</text>

  <!-- Retained object tree -->
  <rect x="240" y="330" width="160" height="50" rx="6" fill="#ffffff" stroke="#d7d1e6" stroke-width="2" stroke-dasharray="4,3"/>
  <text x="320" y="348" text-anchor="middle" font-size="10" font-weight="600" fill="#d7d1e6">Retained Objects</text>
  <text x="320" y="365" text-anchor="middle" font-size="9" fill="#1a1822">props, state, DOM refs</text>
  <text x="320" y="378" text-anchor="middle" font-size="8" fill="#1a1822">entire component scope</text>

  <!-- Arrows in heap -->
  <line x1="140" y1="318" x2="140" y2="330" stroke="#6d5bd0" stroke-width="1.5"/>
  <polygon points="140,330 135,323 145,323" fill="#6d5bd0"/>
  <line x1="220" y1="355" x2="240" y2="355" stroke="#d7d1e6" stroke-width="1.5"/>
  <polygon points="240,355 233,350 233,360" fill="#d7d1e6"/>

  <!-- Leaked memory size indicator -->
  <rect x="60" y="395" width="340" height="30" rx="6" fill="#f3f1f8" stroke="#6d5bd0" stroke-width="1"/>
  <text x="230" y="414" text-anchor="middle" font-size="10" font-weight="600" fill="#6d5bd0">Retained: ~50KB per leaked component instance</text>

  <!-- Correct pattern (right side) -->
  <rect x="460" y="240" width="410" height="200" rx="10" fill="#ffffff" stroke="#6d5bd0" stroke-width="2"/>
  <text x="665" y="264" text-anchor="middle" font-size="12" font-weight="bold" fill="#6d5bd0">Fix: Return Cleanup Function</text>

  <text x="490" y="290" font-size="11" fill="#1a1822">useEffect(() =&amp;gt; {</text>
  <text x="500" y="310" font-size="11" fill="#1a1822">  const cb = (data) =&amp;gt; setState(data);</text>
  <text x="500" y="330" font-size="11" fill="#1a1822">  emitter.on(&amp;apos;change&amp;apos;, cb);</text>
  <text x="500" y="355" font-size="11" font-weight="bold" fill="#6d5bd0">  return () =&amp;gt; emitter.off(&amp;apos;change&amp;apos;, cb);</text>
  <text x="490" y="375" font-size="11" fill="#1a1822">}, []);</text>

  <!-- Checkmark -->
  <rect x="490" y="390" width="350" height="36" rx="6" fill="#f3f1f8" stroke="#6d5bd0" stroke-width="1"/>
  <text x="665" y="405" text-anchor="middle" font-size="10" fill="#1a1822">On unmount: emitter.off() removes callback from Set</text>
  <text x="665" y="420" text-anchor="middle" font-size="10" fill="#6d5bd0">Closure + retained objects become eligible for GC</text>
</svg>