<svg xmlns="http://www.w3.org/2000/svg" xmlns:xlink="http://www.w3.org/1999/xlink" viewBox="0 0 800 800" width="800px" height="800px">
  <style>
  .K{fill-rule:evenodd}.L{fill:#1f1a17}.M{fill:#ccc}
  .N{fill:#fff}.O{fill:#eaa034}.P{stroke-miterlimit:10}
  .Q{fill:none}.R{stroke-width:4}.S{fill:#b0e6ff}.T{stroke:#eaa034}
  </style>
  <path d="M152.3 488.3c-12.2 30.1 55.1 80.8 95.4 73.7 43.8 41.7 139 46.8 215.1 18.1 69.9 3 121.9-29.2 121.9-68.5 55.9 10.6 82.2-41.2 71-80.4 9.8-34.6 2.2-71.5-32.7-88.5-6.8-44.5-45.3-79.2-110.4-79.2-17.7-48.6-83-50.1-119.3-20.7-35-45.7-126.3-48.3-150.5-6-50.4-4.7-86 13.5-95.1 59.3-32.7 8-45 60.3-16.7 94.3-22.1 25.5-12.4 87.2 21.3 97.9z" fill="#e1f5ff" stroke="#acf" stroke-width="3" class="P"/>
  <g transform="matrix(.395857 0 0 .395857 -34.67873 3.15024)">
    <use xlink:href="#B" class="K M"/>
    <use xlink:href="#C" class="L"/>
    <use xlink:href="#B" class="K M"/>
    <use xlink:href="#C" class="L"/>
    <use xlink:href="#D" class="K M"/>
    <use xlink:href="#E" class="L"/>
    <path d="M253.4 354.3v63.1l36.5 21.1v-63.1z" class="K N"/>
    <use xlink:href="#F" class="L"/>
    <path d="M289.9 375.4v63.1l11.8-6.8v-63.1z" class="K N"/>
    <use xlink:href="#G" class="L"/>
    <path d="M253.4 354.3v63.1l36.5 21.1v-63.1z" class="K M"/>
    <use xlink:href="#F" class="L"/>
    <path d="M289.9 375.4v63.1l11.8-6.8v-63.1z" class="K M"/>
    <use xlink:href="#G" class="L"/>
    <path d="M253.4 354.3l36.5 21.1 11.8-6.8-36.5-21.1z" class="K N"/>
    <use xlink:href="#H" class="L"/>
    <path d="M156.6 120.1v186.4l248.9 143.7V263.9z" class="K N"/>
    <use xlink:href="#I" class="L"/>
    <path d="M405.5 263.9v186.3l10.3-5.9V257.9z" class="K N"/>
    <use xlink:href="#J" class="L"/>
    <path d="M156.6 120.1v186.4l248.9 143.7V263.9z" class="K N"/>
    <use xlink:href="#I" class="L"/>
    <path d="M405.5 263.9v186.3l10.3-5.9V257.9z" class="K M"/>
    <use xlink:href="#J" class="L"/>
    <path d="M415.8 257.9l-249-143.7-10.2 5.9 248.9 143.8z" class="K M"/>
    <path d="M405.5 265.5c-.3 0-.6-.1-.8-.2l-249-143.8c-.5-.3-.8-.8-.8-1.4s.3-1.1.8-1.4l10.3-5.9c.5-.3 1.1-.3 1.6 0l248.9 143.7c.5.3.8.8.8 1.4s-.3 1.1-.8 1.4l-10.3 5.9c-.1.2-.4.3-.7.3zM159.8 120.1L405.5 262l7-4-245.7-141.9-7 4z" class="L"/>
    <path d="M156.6 305.6l248.9 143.8V263.9L156.6 120.1z" class="K M"/>
    <path d="M405.2 449.9l-249-143.7-.3-.6V120.1l1-.6 248.9 143.7.3.6v185.5l-.9.6zm-248-144.6l247.6 143v-184l-247.6-143v184z"/>
    <path d="M166.5 286.9l229 132.2V269.6l-229-132.2z" class="K S"/>
    <path d="M395.2 419.6l-229-132.2-.3-.6V137.4l1-.6 229 132.2.3.6v149.5l-1 .5zm-228-133.1L394.9 418V270L167.2 138.5v148z"/>
    <path d="M331.1 350.1l183.5-105.9 41.5 24-183.5 105.9z" class="K M"/>
    <path d="M373.5 375.6h-1.6l-41.5-24v-2.8l183.5-105.9h1.6l41.5 24v2.8L373.5 375.6zm-39.1-25.5l38.3 22.1 180.2-104.1-38.3-22.1-180.2 104.1z"/>
    <path d="M372.6 374.1l183.5-105.9v145.5L372.6 519.6z" class="K M"/>
    <path d="M373.5 521l-2.5-1.4V374.1l.8-1.4 183.5-105.9 2.5 1.4v145.5l-.8 1.4L373.5 521zm.8-145.9v141.7l180.2-104.1V271L374.3 375.1z"/>
    <path d="M331.1 350.1l41.5 24v145.5l-41.5-24z" class="K M"/>
    <path d="M371.8 521l-41.5-24-.8-1.4V350.1l2.5-1.4 41.5 24 .8 1.4v145.5l-2.5 1.4zm-39.1-26.3l38.3 22.1V375.1L332.7 353v141.7z"/>
    <path d="M360.5 399.8l.4.2v-5.1l-.4-.2z" class="K L"/>
    <path d="M360.8 400.3l-.4-.3-.2-.2v-5.1l.4-.2.5.2.1.2v5.1z"/>
    <use xlink:href="#K" class="K L"/>
    <use xlink:href="#L"/>
    <g class="L">
      <path d="M349.7 507.5l-19.6-11.3v-60.9l19.6 11.3v60.9zM332.1 495l15.7 9.1v-56.5l-15.7-9.1V495z"/>
      <path d="M349.7 448.8l-19.6-11.3v-89l19.6 11.3v89zm-17.6-12.4l15.7 9.1V361l-15.7-9.1v84.5z"/>
    </g>
    <use xlink:href="#M"/>
    <use xlink:href="#N"/>
    <use xlink:href="#O"/>
    <use xlink:href="#P"/>
  </g>
  <g transform="matrix(.352846 0 0 .352846 -34.678738 5.312552)">
    <path d="M1022.3 891.2l221-127.8 86.3 49.7-221.4 127.7z" class="K M"/>
    <path d="M1109.4 942.9h-2.4l-85.9-49.6v-4.1l221.1-127.8h2.4l86.3 49.7v4.1l-221.5 127.7zm-82.4-51.7l81.1 46.8 216.7-125-81.5-46.9L1027 891.2z"/>
    <path d="M1022.3 891.2l85.9 49.6v300.7l-85.9-49.6z" class="K M"/>
    <path d="M1107 1243.6l-85.9-49.6-1.2-2.1V891.2l3.6-2.1 85.9 49.6 1.2 2.1v300.7l-3.6 2.1zm-82.3-53l81.1 46.8V942.2l-81.1-46.8v295.2z"/>
    <path d="M1063.8 1151.5l1 .5v-10.5l-1-.6z" class="K L"/>
    <path d="M1064.6 1152.3l-.9-.5-.2-.3v-10.6l.5-.3.9.5.2.3v10.6l-.5.3zm-.4-1l.2.1v-9.7l-.2-.1v9.7z"/>
    <path d="M1067.1 1145.6h0c3.2 3.4 5.1 8.4 4.4 12s-3.7 4.7-7.2 2.7-6.5-6.6-7.2-10.9 1.2-7.2 4.4-6.9l.4 1.2c-2.8-.3-4.4 2.3-3.8 6.1s3.2 7.8 6.3 9.6 5.7.8 6.3-2.3-1-7.5-3.8-10.5c-.2-.3.2-1 .2-1z" class="K L"/>
    <path d="M1067.6 1161.5c-1.1 0-2.2-.4-3.4-1-3.6-2.1-6.7-6.8-7.3-11.2-.4-2.6 0-4.8 1.3-6.1.9-.9 2.1-1.3 3.5-1.2l.3.3.4 1.2-.4.5c-1-.1-1.9.2-2.5.8-.9 1-1.3 2.7-1 4.8.6 3.7 3.1 7.6 6.1 9.3 1.5.9 2.9 1.1 3.9.6.9-.4 1.5-1.3 1.8-2.6.6-3-1-7.3-3.7-10.2l-.1-.4.3-.8.6-.1c3.3 3.5 5.2 8.6 4.5 12.3-.3 1.7-1.2 3-2.5 3.6-.6.1-1.2.2-1.8.2zm-6.6-18.8c-1 0-1.8.3-2.4 1-1.1 1.1-1.5 3.1-1.1 5.5.7 4.2 3.6 8.7 7 10.7 1.7 1 3.3 1.2 4.5.6 1.1-.5 1.8-1.5 2.1-3.1.6-3.3-1-8-3.9-11.2h0c2.8 3 4.4 7.5 3.8 10.6-.3 1.5-1.1 2.6-2.2 3.2-1.3.6-2.9.4-4.6-.6-3.1-1.8-5.8-5.9-6.5-9.8-.4-2.3 0-4.2 1.1-5.4.7-.7 1.5-1.1 2.5-1.1l-.1-.5c0 .1-.1.1-.2.1zm4.7-190.2c-.7 0-1.3-.2-2-.6-2.1-1.2-3.8-4.1-3.8-6.6 0-1.4.6-2.5 1.5-3.1 1-.6 2.2-.5 3.5.2 2.1 1.2 3.8 4.1 3.8 6.6 0 1.4-.6 2.5-1.5 3.1-.5.2-1 .4-1.5.4zm-2.8-8.3c-.1 0-.2 0-.2.1-.2.1-.3.4-.3 1 0 1.6 1.2 3.7 2.6 4.5.5.3.9.3 1.1.2s.3-.4.3-1c0-1.6-1.2-3.7-2.6-4.5-.4-.2-.7-.3-.9-.3zm2.5 240.8c-.6 0-1.1-.2-1.7-.5-1.7-1-3.1-3.4-3.1-5.4 0-1.2.5-2.2 1.3-2.7s1.9-.4 3 .2c1.7 1 3.1 3.4 3.1 5.4 0 1.2-.5 2.2-1.3 2.7-.4.2-.8.3-1.3.3zm-2.2-6.5c-.1 0-.1 0 0 0-.1 0-.2.2-.2.6 0 1.2.9 2.7 1.9 3.3.4.2.6.2.6.2s.1-.2.1-.6c0-1.2-.9-2.7-1.9-3.3-.3-.2-.4-.2-.5-.2zm1.7-7.1c-.4 0-.8-.1-1.2-.3-1.1-.6-2-2.1-2-3.4 0-.9.4-1.6 1-1.9.6-.4 1.4-.3 2.2.1 1.1.7 2 2.1 2 3.4 0 .9-.4 1.6-1 1.9-.3.1-.6.2-1 .2zm25.3-115.7l-51.7-29.9V1013l51.7 29.9v12.8zm-48.9-31.5l46.1 26.7v-6.2l-46.1-26.7v6.2z"/>
    <use xlink:href="#Q"/>
    <use xlink:href="#Q" y="20.1"/>
  </g>
  <g transform="matrix(.395857 0 0 .395857 -34.67873 3.15024)">
    <use xlink:href="#R" class="K M"/>
    <use xlink:href="#C" x="1478.6" y="70.9" class="L"/>
    <use xlink:href="#R" class="K M"/>
    <use xlink:href="#C" x="1478.6" y="70.9" class="L"/>
    <use xlink:href="#D" x="1478.6" y="70.9" class="K M"/>
    <use xlink:href="#E" x="1478.6" y="70.9" class="L"/>
    <path d="M1732 425.2v63.1l36.5 21.1v-63.1z" class="K N"/>
    <use xlink:href="#S" class="L"/>
    <path d="M1768.5 446.3v63.1l11.8-6.8v-63.1z" class="K N"/>
    <use xlink:href="#G" x="1478.6" y="70.9" class="L"/>
    <path d="M1732 425.2v63.1l36.5 21.1v-63.1z" class="K M"/>
    <use xlink:href="#S" class="L"/>
    <path d="M1768.5 446.3v63.1l11.8-6.8v-63.1z" class="K M"/>
    <use xlink:href="#G" x="1478.6" y="70.9" class="L"/>
    <path d="M1732 425.2l36.5 21.1 11.8-6.8-36.5-21.1z" class="K N"/>
    <use xlink:href="#H" x="1478.6" y="70.9" class="L"/>
    <path d="M1635.2 191v186.4l248.9 143.7V334.8z" class="K N"/>
    <use xlink:href="#T" class="L"/>
    <path d="M1884.1 334.8v186.3l10.3-5.9V328.8z" class="K N"/>
    <use xlink:href="#U" class="L"/>
    <path d="M1635.2 191v186.4l248.9 143.7V334.8z" class="K N"/>
    <use xlink:href="#T" class="L"/>
    <path d="M1884.1 334.8v186.3l10.3-5.9V328.8z" class="K M"/>
    <use xlink:href="#U" class="L"/>
    <path d="M1894.4 328.8l-249-143.7-10.2 5.9 248.9 143.8z" class="K M"/>
    <path d="M1884.1 336.4c-.3 0-.6-.1-.8-.2l-248.9-143.7c-.5-.3-.8-.8-.8-1.4s.3-1.1.8-1.4l10.3-5.9c.5-.3 1.1-.3 1.6 0l248.9 143.7c.5.3.8.8.8 1.4s-.3 1.1-.8 1.4l-10.3 5.9c-.2.1-.5.2-.8.2zM1638.4 191l245.7 141.8 7-4L1645.4 187l-7 4z" class="L"/>
    <path d="M1635.2 376.5l248.9 143.8V334.8L1635.2 191z" class="K M"/>
    <path d="M1883.8 520.8l-248.9-143.7-.3-.6V191l1-.6 248.9 143.7.3.6v185.5l-1 .6zm-248-144.6l247.6 143v-184l-247.6-143v184z"/>
    <path d="M1645.1 357.8l229 132.2V340.5l-229-132.2z" class="K S"/>
    <path d="M1873.8 490.5l-229-132.2-.3-.6V208.3l1-.6 229 132.2.3.6V490l-1 .5zm-228-133.1l227.7 131.5v-148l-227.7-131.5v148z"/>
    <path d="M1809.7 421l183.5-105.9 41.5 24L1851.2 445z" class="K M"/>
    <path d="M1852.1 446.5h-1.6l-41.5-24v-2.8l183.5-105.9h1.6l41.5 24v2.8l-183.5 105.9zM1813 421l38.3 22.1L2031.5 339l-38.3-22.1L1813 421z"/>
    <path d="M1851.2 445l183.5-105.9v145.5l-183.5 105.9z" class="K M"/>
    <path d="M1852.1 591.9l-2.5-1.4V445l.8-1.4 183.5-105.9 2.5 1.4v145.5l-.8 1.4-183.5 105.9zm.8-145.9v141.7l180.2-104.1V341.9L1852.9 446z"/>
    <path d="M1809.7 421l41.5 24v145.5l-41.5-24z" class="K M"/>
    <path d="M1850.4 591.9l-41.5-24-.8-1.4V421l2.5-1.4 41.5 24 .8 1.4v145.5l-2.5 1.4zm-39.1-26.3l38.3 22.1V446l-38.3-22.1v141.7z"/>
    <path d="M1839.1 470.7l.4.2v-5.1l-.4-.2z" class="K L"/>
    <path d="M1839.4 471.2l-.4-.3-.2-.2v-5.1l.4-.2.5.2.1.2v5.1z"/>
    <use xlink:href="#K" x="1478.6" y="70.9" class="K L"/>
    <use xlink:href="#L" x="1478.6" y="70.9"/>
    <g class="L">
      <path d="M1828.4 578.4l-19.6-11.3v-60.9l19.6 11.3v60.9zm-17.7-12.5l15.7 9.1v-56.5l-15.7-9.1v56.5z"/>
      <path d="M1828.4 519.7l-19.6-11.3v-89l19.6 11.3v89zm-17.7-12.4l15.7 9.1v-84.5l-15.7-9.1v84.5z"/>
    </g>
    <use xlink:href="#M" x="1478.6" y="70.9"/>
    <use xlink:href="#N" x="1478.6" y="70.9"/>
    <use xlink:href="#O" x="1478.6" y="70.9"/>
    <use xlink:href="#P" x="1478.6" y="70.9"/>
  </g>
  <path d="M314.7 343.5l-35.9-31.3" stroke="#000" class="P Q R"/>
  <path d="M287 310.1l-24.2-11.9 15 22.4z"/>
  <path d="M470.1 376.5h62.7" stroke="#000" class="P Q R"/>
  <path d="M528.1 383.5l26-7-26-6.9z"/>
  <path d="M314.7 400.7l-37.5 11.7" stroke="#000" class="P Q R"/>
  <path d="M279.6 404.3l-22.7 14.5 26.9-1.2z"/>
  <g transform="matrix(1.121898 0 0 1.121898 4.227277 -2.809901)">
    <g transform="matrix(.352846 0 0 .352846 -34.678738 5.312552)">
      <use xlink:href="#V" class="K M"/>
      <use xlink:href="#C" x="18" y="1335.7" class="L"/>
      <use xlink:href="#V" class="K M"/>
      <use xlink:href="#C" x="18" y="1335.7" class="L"/>
      <path d="M329.7 1744.3c32.1 18.5 43.1 42.2 24.5 52.9-18.5 10.7-59.6 4.4-91.7-14.2-32.1-18.5-43.1-42.2-24.5-52.9s59.7-4.3 91.7 14.2z" class="K M"/>
      <path d="M329.8 1804c-20.4 0-46.3-7-68-19.5-21.5-12.4-34.3-27.4-34.3-40.2 0-6.5 3.4-11.9 9.8-15.6 19-10.9 60.8-4.6 93.3 14.2 21.5 12.4 34.3 27.4 34.3 40.2 0 6.5-3.4 11.9-9.8 15.6-6.3 3.6-15.1 5.3-25.3 5.3zm-67.2-77.5c-9.6 0-17.8 1.6-23.7 5-5.4 3.1-8.2 7.4-8.2 12.7 0 11.4 12.5 25.7 32.7 37.3 31.6 18.2 72 24.6 90 14.2 5.4-3.1 8.2-7.4 8.2-12.7 0-11.4-12.5-25.7-32.7-37.3h0c-21.2-12.3-46.5-19.2-66.3-19.2z" class="L"/>
      <path d="M271.3 1690v63.1l36.5 21V1711z" class="K N"/>
      <use xlink:href="#W" class="L"/>
      <path d="M307.8 1711v63.1l11.8-6.8v-63.1z" class="K N"/>
      <use xlink:href="#X" class="L"/>
      <path d="M271.3 1690v63.1l36.5 21V1711z" class="K M"/>
      <use xlink:href="#W" class="L"/>
      <path d="M307.8 1711v63.1l11.8-6.8v-63.1z" class="K M"/>
      <use xlink:href="#X" class="L"/>
      <path d="M271.3 1690l36.5 21 11.8-6.8-36.5-21z" class="K N"/>
      <use xlink:href="#H" x="17.9" y="1335.7" class="L"/>
      <path d="M174.5 1455.8v186.4l248.9 143.7v-186.4z" class="K N"/>
      <use xlink:href="#Y" class="L"/>
      <path d="M423.4 1599.5v186.4l10.3-6v-186.3z" class="K N"/>
      <use xlink:href="#Z" class="L"/>
      <path d="M174.5 1455.8v186.4l248.9 143.7v-186.4z" class="K N"/>
      <use xlink:href="#Y" class="L"/>
      <path d="M423.4 1599.5v186.4l10.3-6v-186.3z" class="K M"/>
      <use xlink:href="#Z" class="L"/>
      <path d="M433.7 1593.6l-248.9-143.7-10.3 5.9 248.9 143.7z" class="K M"/>
      <path d="M423.4 1601.2c-.3 0-.6-.1-.8-.2l-248.9-143.7c-.5-.3-.8-.8-.8-1.4s.3-1.1.8-1.4l10.3-5.9c.5-.3 1.1-.3 1.6 0l248.9 143.7c.5.3.8.8.8 1.4s-.3 1.1-.8 1.4l-10.3 5.9c-.2.1-.5.2-.8.2zm-245.6-145.4l245.7 141.8 7-4-245.7-141.8-7 4z" class="L"/>
      <path d="M174.5 1641.3L423.4 1785v-185.5l-248.9-143.7z" class="K M"/>
      <path d="M423.1 1785.6l-248.9-143.7-.3-.6v-185.5l1-.6L423.8 1599l.3.6V1785l-1 .6zm-248-144.7l247.6 143v-184l-247.6-143v184z"/>
      <path d="M184.4 1622.5l229.1 132.2v-149.4L184.4 1473z" class="K S"/>
      <path d="M413.1 1755.3l-229-132.2-.3-.6V1473l1-.6 229 132.2.3.6v149.5l-1 .6zm-228-133.2l227.7 131.5v-148l-227.7-131.5v148z"/>
      <path d="M349 1685.8l183.5-105.9 41.6 24-183.5 105.9z" class="K M"/>
      <use xlink:href="#a"/>
      <path d="M390.6 1709.8l183.5-105.9v145.4l-183.5 106z" class="K M"/>
      <path d="M391.4 1856.7l-2.5-1.4v-145.5l.8-1.4 183.5-105.9 2.5 1.4v145.5l-.8 1.4-183.5 105.9zm.8-146v141.7l180.2-104.1v-141.7l-180.2 104.1z"/>
      <path d="M349 1685.8l41.6 24v145.5l-41.6-24z" class="K M"/>
      <path d="M389.8 1856.7l-41.5-24-.8-1.4v-145.5l2.5-1.4 41.5 24 .8 1.4v145.5l-2.5 1.4zm-39.1-26.4l38.3 22.1v-141.7l-38.3-22.1v141.7z"/>
      <path d="M378.4 1735.5l.5.2v-5.1l-.5-.2z" class="K L"/>
      <path d="M378.7 1735.9l-.4-.2-.1-.2v-5.1l.3-.3.5.3.1.2v5.1z"/>
      <use xlink:href="#K" x="17.9" y="1335.7" class="K L"/>
      <path d="M380.2 1740.4c-.5 0-1.1-.2-1.7-.5-1.7-1-3.3-3.3-3.6-5.5-.2-1.3 0-2.4.6-3 .4-.5 1-.7 1.7-.6l.2.2.2.6-.3.3c-.5-.1-.9.1-1.1.4-.4.5-.6 1.3-.4 2.3.3 1.8 1.5 3.6 2.9 4.5.7.4 1.3.5 1.8.3.4-.2.7-.6.8-1.2.3-1.4-.5-3.5-1.8-4.8v-.3l.2-.4.4-.1c1.6 1.7 2.5 4.2 2.2 6-.2.9-.6 1.5-1.2 1.8-.3-.1-.6 0-.9 0zm-.8-.7c.6.2 1.1.2 1.5 0 .5-.2.8-.7 1-1.4v-.1c-.2.7-.5 1.1-1.1 1.4-.4.3-.9.3-1.4.1zm-2.3-8.4c-.5 0-.8.2-1.1.5s-.4.7-.5 1.1c.1-.4.3-.7.5-1 .3-.3.7-.5 1.1-.6h0z"/>
      <g class="L">
        <path d="M367.7 1843.2l-19.6-11.3V1771l19.6 11.3v60.9zm-17.7-12.5l15.7 9.1v-56.5l-15.7-9.1v56.5z"/>
        <path d="M367.7 1784.5l-19.6-11.3v-89l19.6 11.3v89zM350 1772l15.7 9.1v-84.5l-15.7-9.1v84.5z"/>
      </g>
      <path d="M370.1 1715.7c-.4 0-.7-.1-1.1-.3-1.1-.6-2-2.1-2-3.4 0-.8.3-1.4.9-1.7.5-.3 1.2-.3 1.9.1 1.1.6 2 2.1 2 3.4 0 .8-.3 1.4-.9 1.7-.3.1-.6.2-.8.2zm-1.4-4v.3c0 .7.5 1.6 1.1 2 .2.1.3.1.3.1h0v-.3c0-.7-.5-1.6-1.1-2-.2-.1-.3-.1-.3-.1h0zm10.5 43.1c-.3 0-.6-.1-1-.3-.9-.5-1.6-1.7-1.6-2.8 0-.7.3-1.2.8-1.5s1.1-.3 1.7.1c.9.5 1.6 1.7 1.6 2.8 0 .7-.3 1.2-.8 1.5-.2.1-.5.2-.7.2zm-1-3.1c0 .5.4 1.1.8 1.4 0-.5-.4-1.1-.8-1.4z"/>
      <path d="M379 1754.2c-.2 0-.5-.1-.8-.2-.7-.4-1.2-1.3-1.2-2 0-.5.2-1 .6-1.2s.9-.2 1.4.1c.7.4 1.2 1.3 1.2 2 0 .5-.2 1-.6 1.2-.2.1-.4.1-.6.1zm-.1-6c-.2 0-.5-.1-.7-.2-.6-.4-1.1-1.1-1.1-1.9 0-.5.2-.9.6-1.1s.8-.2 1.3 0c.6.4 1.1 1.1 1.1 1.9 0 .5-.2.9-.6 1.1-.2.2-.4.2-.6.2zm-.4-1.3h.8-.8z"/>
    </g>
    <g transform="matrix(.352846 0 0 .352846 -34.678738 5.312552)">
      <use xlink:href="#b" class="K M"/>
      <use xlink:href="#C" x="1492.2" y="1318.8" class="L"/>
      <use xlink:href="#b" class="K M"/>
      <use xlink:href="#C" x="1492.2" y="1318.8" class="L"/>
      <use xlink:href="#D" x="1492.2" y="1318.8" class="K M"/>
      <path d="M1804.1 1787.1c-20.4 0-46.3-7-68-19.5-21.5-12.4-34.3-27.4-34.3-40.2 0-6.5 3.4-11.9 9.8-15.6 19-10.9 60.8-4.6 93.3 14.2 21.5 12.4 34.3 27.4 34.3 40.2 0 6.5-3.4 11.9-9.8 15.6-6.4 3.6-15.2 5.3-25.3 5.3zm-67.2-77.4c-9.6 0-17.8 1.6-23.7 5-5.4 3.1-8.2 7.4-8.2 12.7 0 11.4 12.5 25.7 32.7 37.3 31.6 18.2 72 24.6 90 14.2 5.4-3.1 8.2-7.4 8.2-12.7 0-11.4-12.5-25.7-32.7-37.3h0c-21.3-12.4-46.6-19.2-66.3-19.2z" class="L"/>
      <path d="M1745.6 1673.1v63.1l36.5 21.1v-63.1z" class="K N"/>
      <use xlink:href="#c" class="L"/>
      <path d="M1782.1 1694.2v63.1l11.8-6.8v-63.1z" class="K N"/>
      <use xlink:href="#G" x="1492.2" y="1318.8" class="L"/>
      <path d="M1745.6 1673.1v63.1l36.5 21.1v-63.1z" class="K M"/>
      <use xlink:href="#c" class="L"/>
      <path d="M1782.1 1694.2v63.1l11.8-6.8v-63.1z" class="K M"/>
      <use xlink:href="#G" x="1492.2" y="1318.8" class="L"/>
      <path d="M1745.6 1673.1l36.5 21.1 11.8-6.8-36.5-21.1z" class="K N"/>
      <use xlink:href="#H" x="1492.2" y="1318.8" class="L"/>
      <path d="M1648.7 1438.9v186.4l249 143.7v-186.4z" class="K N"/>
      <use xlink:href="#d" class="L"/>
      <path d="M1897.7 1582.6V1769l10.3-5.9v-186.4z" class="K N"/>
      <use xlink:href="#e" class="L"/>
      <path d="M1648.7 1438.9v186.4l249 143.7v-186.4z" class="K N"/>
      <use xlink:href="#d" class="L"/>
      <path d="M1897.7 1582.6V1769l10.3-5.9v-186.4z" class="K M"/>
      <use xlink:href="#e" class="L"/>
      <path d="M1908 1576.7L1659 1433l-10.3 5.9 249 143.7z" class="K M"/>
      <path d="M1897.7 1584.3c-.3 0-.6-.1-.8-.2L1648 1440.4c-.5-.3-.8-.8-.8-1.4s.3-1.1.8-1.4l10.3-5.9c.5-.3 1.1-.3 1.6 0l248.9 143.7c.5.3.8.8.8 1.4s-.3 1.1-.8 1.4l-10.3 5.9c-.2.1-.5.2-.8.2zM1652 1438.9l245.7 141.8 7-4-245.7-141.8-7 4z" class="L"/>
      <path d="M1648.7 1624.4l249 143.8v-185.6l-249-143.7z" class="K M"/>
      <path d="M1897.4 1768.7l-249-143.7-.3-.6v-185.5l1-.6L1898 1582l.3.6v185.5l-.9.6zm-248-144.7l247.6 143v-184l-247.6-143v184z"/>
      <path d="M1658.7 1605.6l229 132.3v-149.5l-229-132.2z" class="K S"/>
      <path d="M1887.4 1738.4l-229-132.2-.3-.6v-149.5l1-.6 229 132.2.3.6v149.5l-1 .6zm-228-133.1l227.7 131.5v-148l-227.7-131.5v148z"/>
      <path d="M1823.3 1668.9l183.5-105.9 41.5 24-183.5 105.9z" class="K M"/>
      <use xlink:href="#a" x="1474.3" y="-16.9"/>
      <path d="M1864.8 1692.9l183.5-105.9v145.5l-183.5 105.9z" class="K M"/>
      <path d="M1865.7 1839.8l-2.5-1.4v-145.5l.8-1.4 183.5-105.9 2.5 1.4v145.5l-.8 1.4-183.5 105.9zm.8-145.9v141.7l180.2-104.1v-141.7l-180.2 104.1z"/>
      <path d="M1823.3 1668.9l41.5 24v145.5l-41.5-24z" class="K M"/>
      <path d="M1864 1839.8l-41.5-24-.8-1.4v-145.5l2.5-1.4 41.5 24 .8 1.4v145.5l-2.5 1.4zm-39.1-26.3l38.3 22.1v-141.7l-38.3-22.1v141.7z"/>
      <path d="M1852.7 1718.6l.4.2v-5.1l-.4-.2z" class="K L"/>
      <path d="M1853 1719l-.4-.2-.2-.2v-5.1l.4-.2.4.2.2.2v5.1z"/>
      <use xlink:href="#K" x="1492.2" y="1318.8" class="K L"/>
      <path d="M1854.5 1723.5c-.5 0-1.1-.2-1.7-.5-1.7-1-3.3-3.3-3.6-5.5-.2-1.3 0-2.4.6-3 .4-.5 1-.7 1.7-.6l.2.2.2.6-.3.3c-.5-.1-.9.1-1.1.4-.4.5-.6 1.3-.4 2.3.3 1.8 1.5 3.6 2.9 4.5.7.4 1.3.5 1.8.3.4-.2.7-.6.8-1.2.3-1.4-.5-3.5-1.8-4.8v-.3l.2-.4.4-.1c1.6 1.7 2.5 4.2 2.2 6-.2.9-.6 1.5-1.2 1.8h-.9zm-.9-.6c.6.2 1.1.2 1.5 0 .5-.2.8-.7 1-1.4v-.1c-.2.7-.5 1.1-1.1 1.4-.4.2-.9.2-1.4.1zm-2.3-8.5c-.5 0-.8.2-1.1.5s-.4.7-.5 1.1c.1-.4.3-.7.5-1 .3-.3.7-.5 1.1-.6h0z"/>
      <g class="L">
        <path d="M1841.9 1826.3l-19.6-11.3v-61l19.6 11.3v61zm-17.6-12.5l15.7 9.1v-56.5l-15.7-9.1v56.5z"/>
        <path d="M1841.9 1767.6l-19.6-11.3v-89l19.6 11.3v89zm-17.6-12.5l15.7 9.1v-84.5l-15.7-9.1v84.5z"/>
      </g>
      <path d="M1844.3 1698.8c-.4 0-.7-.1-1.1-.3-1.1-.6-2-2.1-2-3.4 0-.8.3-1.4.9-1.7.5-.3 1.2-.3 1.9.1 1.1.6 2 2.1 2 3.4 0 .8-.3 1.4-.9 1.7-.2.1-.5.2-.8.2zm-1.4-4v.3c0 .7.5 1.6 1.1 2 .2.1.3.1.3.1h0v-.3c0-.7-.5-1.6-1.1-2-.2-.1-.3-.1-.3-.1h0zm10.5 43.1c-.3 0-.6-.1-1-.3-.9-.5-1.6-1.7-1.6-2.8 0-.7.3-1.2.8-1.5s1.1-.3 1.7.1c.9.5 1.6 1.7 1.6 2.8 0 .7-.3 1.2-.8 1.5-.2.2-.4.2-.7.2zm-.9-3c0 .5.4 1.1.8 1.4 0-.5-.4-1.2-.8-1.4z"/>
      <path d="M1853.2 1737.4c-.2 0-.5-.1-.8-.2-.7-.4-1.2-1.3-1.2-2 0-.5.2-1 .6-1.2s.9-.2 1.4.1c.7.4 1.2 1.3 1.2 2 0 .5-.2 1-.6 1.2-.1 0-.3.1-.6.1zm0-6c-.2 0-.5-.1-.7-.2-.6-.4-1.1-1.1-1.1-1.9 0-.5.2-.9.6-1.1s.8-.2 1.3 0c.6.4 1.1 1.1 1.1 1.9 0 .5-.2.9-.6 1.1-.2.1-.4.2-.6.2zm-.5-1.3h.8-.8z"/>
    </g>
  </g>
  <g transform="matrix(.352846 0 0 .352846 -34.678738 5.312552)">
    <path d="M1108.2 940.8l221-127.9 86.3 49.7-221.4 127.8z" class="K M"/>
    <path d="M1195.2 992.4h-2.4l-85.9-49.6v-4.1L1328 810.9h2.4l86.3 49.7v4.1l-221.5 127.7zm-82.3-51.6l81.1 46.8 216.7-125-81.5-46.9-216.3 125.1z"/>
    <path d="M1194.1 990.4l221.4-127.8v300.7l-221.4 127.8z" class="K M"/>
    <path d="M1195.2 1293.1l-3.6-2.1V990.4l1.2-2.1 221.4-127.7 3.6 2.1v300.7l-1.2 2.1-221.4 127.6zm1.2-301.4v295.2l216.7-125V866.7l-216.7 125z"/>
    <path d="M1108.2 940.8l85.9 49.6v300.7l-85.9-49.6z" class="K M"/>
    <path d="M1192.9 1293.1l-85.9-49.6-1.2-2.1V940.8l3.6-2.1 85.9 49.6 1.2 2.1v300.7l-3.6 2zm-82.4-53l81.1 46.8V991.7l-81.1-46.8v295.2z"/>
    <path d="M1149.7 1201l1 .6V1191l-1-.5z" class="K L"/>
    <path d="M1150.5 1201.9l-.9-.5-.2-.3v-10.6l.5-.3.9.5.2.3v10.6l-.5.3zm-.4-1.1l.2.1v-9.7l-.2-.1v9.7z"/>
    <path d="M1153 1195.1h0c3.2 3.4 5.1 8.4 4.4 12s-3.7 4.7-7.2 2.7-6.5-6.6-7.2-10.9 1.2-7.2 4.4-6.9l.4 1.2c-2.8-.3-4.4 2.3-3.8 6.1s3.2 7.8 6.3 9.6 5.7.8 6.3-2.3-1-7.5-3.8-10.5c-.2-.2.2-1 .2-1z" class="K L"/>
    <path d="M1153.5 1211.1c-1.1 0-2.2-.4-3.4-1-3.6-2.1-6.7-6.8-7.3-11.2-.4-2.6 0-4.8 1.3-6.1.9-.9 2.1-1.3 3.5-1.2l.3.3.4 1.2-.4.5c-1-.1-1.9.2-2.5.8-.9 1-1.3 2.7-1 4.8.6 3.7 3.1 7.6 6.1 9.3 1.5.9 2.9 1.1 3.9.6.9-.4 1.5-1.3 1.8-2.6.6-3-1-7.3-3.7-10.2l-.1-.4.3-.8.6-.1c3.3 3.5 5.2 8.6 4.5 12.3-.3 1.7-1.2 3-2.5 3.6-.6.1-1.2.2-1.8.2zm-6.6-18.9c-1 0-1.8.3-2.4 1-1.1 1.1-1.5 3.1-1.1 5.5.7 4.2 3.6 8.7 7 10.7 1.7 1 3.3 1.2 4.5.6 1.1-.5 1.8-1.5 2.1-3.1.6-3.3-1-8-3.9-11.2h0c2.8 3 4.4 7.5 3.8 10.6-.3 1.5-1.1 2.6-2.2 3.2-1.3.6-2.9.4-4.6-.6-3.1-1.8-5.8-5.9-6.5-9.8-.4-2.3 0-4.2 1.1-5.4.7-.7 1.5-1.1 2.5-1.1l-.1-.5c0 .1-.1.1-.2.1zm4.7-190.2c-.7 0-1.3-.2-2-.6-2.1-1.2-3.8-4.1-3.8-6.6 0-1.4.6-2.5 1.5-3.1 1-.6 2.2-.5 3.5.2 2.1 1.2 3.8 4.1 3.8 6.6 0 1.4-.6 2.5-1.5 3.1-.5.3-1 .4-1.5.4zm-2.8-8.2c-.1 0-.2 0-.2.1-.2.1-.3.4-.3 1 0 1.6 1.2 3.7 2.6 4.5.5.3.9.3 1.1.2s.3-.4.3-1c0-1.6-1.2-3.7-2.6-4.5-.5-.3-.7-.3-.9-.3zm2.5 240.7c-.6 0-1.1-.2-1.7-.5-1.7-1-3.1-3.4-3.1-5.4 0-1.2.5-2.2 1.3-2.7s1.9-.4 3 .2c1.7 1 3.1 3.4 3.1 5.4 0 1.2-.5 2.2-1.3 2.7-.4.2-.8.3-1.3.3zm-2.2-6.5c-.1 0-.1 0 0 0-.1 0-.2.2-.2.6 0 1.2.9 2.7 1.9 3.3.4.2.6.2.6.2s.1-.2.1-.6c0-1.2-.9-2.7-1.9-3.3-.3-.1-.4-.2-.5-.2zm1.7-7.1c-.4 0-.8-.1-1.2-.3-1.1-.6-2-2.1-2-3.4 0-.9.4-1.6 1-1.9.6-.4 1.4-.3 2.2.1 1.1.7 2 2.1 2 3.4 0 .9-.4 1.6-1 1.9-.3.1-.7.2-1 .2z"/>
    <use xlink:href="#Q" x="85.9" y="29.5"/>
    <path d="M1176.1 1125.3l-51.7-29.9v-12.8l51.7 29.9v12.8zm-48.9-31.5l46.1 26.7v-6.2l-46.1-26.7v6.2z"/>
    <use xlink:href="#Q" x="85.9" y="69.6"/>
    <path d="M697.9 632.4L835 553.1l53.5 30.8-137.3 79.3z" class="K O"/>
    <path d="M751.9 664.4h-1.5l-53.3-30.8V631l137.1-79.3h1.5l53.5 30.8v2.6l-137.3 79.3zm-51.1-32l50.3 29.1L885.5 584 835 554.8l-134.2 77.6z"/>
    <path d="M751.2 663.2l137.3-79.3v186.6l-137.3 79.2z" class="K O"/>
    <path d="M751.9 851l-2.2-1.3V663.2l.7-1.3 137.4-79.2 2.2 1.3v186.5l-.7 1.3L751.9 851zm.7-187v183.1L887 769.6V586.5L752.6 664z"/>
    <path d="M697.9 632.4l53.3 30.8v186.5l-53.3-30.8z" class="K O"/>
    <path d="M750.4 851l-53.3-30.8-.7-1.3V632.4l2.2-1.3 53.3 30.8.7 1.3v186.5l-2.2 1.3zm-51-32.9l50.3 29.1V664l-50.3-29v183.1z"/>
    <path d="M723.7 793.8l.5.4v-6.6l-.5-.3z" class="K L"/>
    <path d="M724.1 794.4l-.6-.3-.1-.2v-6.5l.3-.2.6.3.1.2v6.5l-.3.2zm-.2-.7l.1.1v-6l-.1-.1v6z"/>
    <path d="M725.7 790.2h0c2 2.1 3.1 5.2 2.7 7.4s-2.3 2.9-4.4 1.6c-2.2-1.2-4-4.1-4.4-6.8s.7-4.5 2.7-4.3l.2.7c-1.7-.2-2.7 1.4-2.4 3.8.4 2.4 2 4.8 3.9 5.9s3.5.5 3.9-1.4-.6-4.7-2.4-6.5c0 0 .2-.4.2-.4z" class="K L"/>
    <path d="M726 800.1c-.7 0-1.4-.2-2.1-.6-2.2-1.3-4.1-4.2-4.6-6.9-.3-1.6 0-3 .8-3.8.5-.6 1.3-.8 2.2-.8l.2.2.2.7-.2.3c-.6-.1-1.2.1-1.5.5-.6.6-.8 1.7-.6 3 .4 2.3 1.9 4.7 3.8 5.8.9.5 1.8.7 2.4.4s1-.8 1.1-1.6c.4-1.9-.6-4.5-2.3-6.3v-.2l.2-.5.4-.1c2 2.2 3.2 5.4 2.8 7.6-.2 1.1-.8 1.9-1.5 2.2-.6 0-.9.1-1.3.1zm-4.1-11.7c-.6 0-1.1.2-1.5.6-.7.7-.9 2-.7 3.4.4 2.6 2.2 5.4 4.3 6.6 1.1.6 2.1.8 2.8.4.7-.3 1.1-1 1.3-1.9.4-2-.6-4.9-2.4-7h0c1.7 1.9 2.7 4.6 2.3 6.6-.2.9-.7 1.6-1.4 2-.8.4-1.8.2-2.9-.4-1.9-1.1-3.6-3.7-4-6.1-.2-1.4 0-2.6.7-3.3.4-.4 1-.7 1.6-.7l-.1-.3c.1.1.1.1 0 .1zm2.9-118c-.4 0-.8-.1-1.3-.4-1.3-.8-2.4-2.6-2.4-4.1 0-.9.3-1.6 1-1.9.6-.4 1.4-.3 2.1.1 1.3.8 2.4 2.6 2.4 4.1 0 .9-.3 1.6-1 1.9-.1.2-.4.3-.8.3zm-1.7-5.1h-.1c-.1.1-.2.3-.2.6 0 1 .8 2.3 1.6 2.8.3.2.6.2.7.1s.2-.3.2-.6c0-1-.8-2.3-1.6-2.8-.3-.1-.5-.1-.6-.1z"/>
    <use xlink:href="#f"/>
    <use xlink:href="#g"/>
    <path d="M740 734.4l-32.1-18.6v-7.9l32.1 18.6v7.9zm-30.3-19.5l28.6 16.5v-3.9L709.7 711v3.9zm30.3 32l-32.1-18.6v-7.9L740 739v7.9zm-30.3-19.6l28.6 16.5V740l-28.6-16.5v3.8z"/>
    <use xlink:href="#h"/>
    <path d="M1697.9 964.1l137.1-79.3 53.5 30.8-137.4 79.2z" class="K O"/>
    <path d="M1751.9 996.1h-1.5l-53.3-30.8v-2.6l137.1-79.3h1.5l53.5 30.8v2.6l-137.3 79.3zm-51.1-32l50.3 29.1 134.4-77.5-50.5-29.1-134.2 77.5z"/>
    <path d="M1751.1 994.8l137.4-79.2v186.5l-137.4 79.3z" class="K O"/>
    <path d="M1751.9 1182.7l-2.2-1.3V994.8l.7-1.3 137.4-79.2 2.2 1.3v186.5l-.7 1.3-137.4 79.3zm.7-187v183.1l134.4-77.5V918.2l-134.4 77.5z"/>
    <path d="M1697.9 964.1l53.2 30.7v186.6l-53.2-30.8z" class="K O"/>
    <path d="M1750.4 1182.7l-53.3-30.8-.7-1.3V964.1l2.2-1.3 53.3 30.8.7 1.3v186.5l-2.2 1.3zm-51.1-32.9l50.3 29.1V995.7l-50.3-29.1v183.2z"/>
    <path d="M1723.7 1125.5l.5.3v-6.5l-.5-.3z" class="K L"/>
    <path d="M1724.1 1126l-.6-.3-.1-.2v-6.5l.3-.2.6.3.1.2v6.5l-.3.2zm-.2-.6l.1.1v-6l-.1-.1v6z"/>
    <use xlink:href="#i" class="K L"/>
    <path d="M1726 1131.8c-.7 0-1.4-.2-2.1-.6-2.2-1.3-4.1-4.2-4.6-6.9-.3-1.6 0-3 .8-3.8.5-.6 1.3-.8 2.2-.8l.2.2.2.7-.2.3c-.6-.1-1.2.1-1.5.5-.6.6-.8 1.7-.6 3 .4 2.3 1.9 4.7 3.8 5.8.9.5 1.8.7 2.4.4s1-.8 1.1-1.6c.4-1.9-.6-4.5-2.3-6.3v-.2l.2-.5.4-.1c2 2.2 3.2 5.4 2.8 7.6-.2 1.1-.8 1.9-1.5 2.2-.6 0-.9.1-1.3.1zm-4.1-11.7c-.6 0-1.1.2-1.5.6-.7.7-.9 2-.7 3.4.4 2.6 2.2 5.4 4.3 6.6 1.1.6 2.1.8 2.8.4.7-.3 1.1-1 1.3-1.9.4-2-.6-4.9-2.4-7h0c1.7 1.9 2.7 4.6 2.3 6.6-.2.9-.7 1.6-1.4 2-.8.4-1.8.2-2.9-.4-1.9-1.1-3.6-3.7-4-6.1-.2-1.4 0-2.6.7-3.3.4-.4 1-.7 1.6-.7l-.1-.3c.1.1 0 .1 0 .1zm2.9-118c-.4 0-.8-.1-1.3-.4-1.3-.8-2.4-2.6-2.4-4.1 0-.9.3-1.6 1-1.9.6-.4 1.4-.3 2.1.1 1.3.8 2.4 2.6 2.4 4.1 0 .9-.3 1.6-1 1.9-.2.2-.5.3-.8.3zm-1.7-5.2h-.1c-.1.1-.2.3-.2.6 0 1 .8 2.3 1.6 2.8.3.2.6.2.7.1s.2-.3.2-.6c0-1-.8-2.3-1.6-2.8-.4 0-.5-.1-.6-.1z"/>
    <use xlink:href="#f" x="1000" y="331.7"/>
    <use xlink:href="#g" x="1000" y="331.7"/>
    <use xlink:href="#j"/>
    <use xlink:href="#j" y="12.5"/>
    <use xlink:href="#j" y="24.9"/>
    <path d="M605.5 1190.8l137.1-79.3 53.6 30.9-137.4 79.2z" class="K O"/>
    <path d="M659.5 1222.9H658l-53.3-30.8v-2.6l137.1-79.3h1.5l53.5 30.8v2.6l-137.3 79.3zm-51-32.1l50.3 29.1 134.4-77.5-50.5-29.1-134.2 77.5z"/>
    <path d="M658.8 1221.6l137.4-79.2v186.5l-137.4 79.3z" class="K O"/>
    <path d="M659.5 1409.4l-2.2-1.3v-186.5l.7-1.3 137.4-79.2 2.2 1.3v186.5l-.7 1.3-137.4 79.2zm.8-186.9v183.1l134.4-77.5V1145l-134.4 77.5z"/>
    <path d="M605.5 1190.8l53.3 30.8v186.6l-53.3-30.8z" class="K O"/>
    <path d="M658 1409.4l-53.3-30.8-.7-1.3v-186.5l2.2-1.3 53.3 30.8.7 1.3v186.5l-2.2 1.3zm-51-32.9l50.3 29.1v-183.1l-50.3-29.1v183.1z"/>
    <path d="M631.3 1352.3l.6.3v-6.5l-.6-.4z" class="K L"/>
    <path d="M631.7 1352.8l-.6-.3-.1-.2v-6.5l.3-.2.6.3.1.2v6.5l-.3.2zm-.2-.6l.1.1v-6l-.1-.1v6z"/>
    <use xlink:href="#i" x="-1092.4" y="226.8" class="K L"/>
    <path d="M633.6 1358.5c-.7 0-1.4-.2-2.1-.6-2.2-1.3-4.1-4.2-4.6-6.9-.3-1.6 0-3 .8-3.8.5-.6 1.3-.8 2.2-.8l.2.2.2.7-.2.3c-.6-.1-1.2.1-1.5.5-.6.6-.8 1.7-.6 3 .4 2.3 1.9 4.7 3.8 5.8.9.5 1.8.7 2.4.4s1-.8 1.1-1.6c.4-1.9-.6-4.5-2.3-6.3v-.2l.2-.5.4-.1c2 2.2 3.2 5.4 2.8 7.6-.2 1.1-.8 1.9-1.5 2.2-.5.1-.9.1-1.3.1zm-4-11.7c-.6 0-1.1.2-1.5.6-.7.7-.9 2-.7 3.4.4 2.6 2.2 5.4 4.3 6.6 1.1.6 2.1.8 2.8.4.7-.3 1.1-1 1.3-1.9.4-2-.6-4.9-2.4-7h0c1.7 1.9 2.7 4.6 2.3 6.6-.2.9-.7 1.6-1.4 2-.8.4-1.8.2-2.9-.4-1.9-1.1-3.6-3.7-4-6.1-.2-1.4 0-2.6.7-3.3.4-.4 1-.7 1.6-.7l-.1-.3v.1zm2.9-118c-.4 0-.8-.1-1.3-.4-1.3-.8-2.4-2.6-2.4-4.1 0-.9.3-1.6 1-1.9.6-.4 1.4-.3 2.1.1 1.3.8 2.4 2.6 2.4 4.1 0 .9-.3 1.6-1 1.9-.2.3-.5.3-.8.3zm-1.8-5.1h-.1c-.1.1-.2.3-.2.6 0 1 .8 2.3 1.6 2.8.3.2.6.2.7.1s.2-.3.2-.6c0-1-.8-2.3-1.6-2.8-.3 0-.5-.1-.6-.1zm1.6 149.4c-.3 0-.7-.1-1.1-.3-1.1-.6-1.9-2.1-1.9-3.3 0-.7.3-1.3.8-1.6s1.2-.3 1.8.1c1.1.6 1.9 2.1 1.9 3.3 0 .7-.3 1.3-.8 1.6-.2.1-.4.2-.7.2zm-1.4-4.1s-.1 0 0 0c0 0-.1.1-.1.4 0 .7.6 1.7 1.2 2.1.2.1.3.1.4.1 0 0 .1-.1.1-.4 0-.7-.6-1.7-1.2-2.1-.3 0-.4-.1-.4-.1zm1.1-4.4c-.2 0-.5-.1-.8-.2-.7-.4-1.2-1.3-1.2-2.1 0-.5.2-1 .6-1.2s.9-.2 1.3.1c.7.4 1.2 1.3 1.2 2.1 0 .5-.2 1-.6 1.2-.1.1-.3.1-.5.1z"/>
    <use xlink:href="#h" x="-92.4" y="533.6"/>
    <path d="M647.6 1305.3l-32.1-18.6v-7.9l32.1 18.6v7.9zm-30.3-19.5l28.6 16.5v-3.9l-28.6-16.5v3.9z"/>
    <use xlink:href="#h" x="-92.4" y="558.5"/>
  </g>
  <path d="M184.2 509.6l-40.6 75.8" class="P Q R T"/>
  <path d="M139.7 577.9l-6.1 26.2 18.4-19.6z" class="O"/>
  <path d="M203.3 249.1L161.7 216" class="P Q R T"/>
  <path d="M169.7 213.5L145 202.7l16.1 21.7z" class="O"/>
  <path d="M616.3 425l19.1 112.7" class="P Q R T"/>
  <path d="M627.7 534.1l11.3 24.5 2.5-26.8z" class="O"/>
  <path d="M627.6 313.9l27.4-53.1" class="P Q R T"/>
  <path d="M659 268.2l5.8-26.3-18.2 19.9z" class="O"/>
  <defs >
    <path id="B" d="M216.6 432.5l-1.2-1.8-1.1-1.9-.9-1.8-.7-1.7-.6-1.8-.5-1.7-.3-1.7-.1-1.7v-9l.1 1.6.3 1.7.5 1.7.6 1.8.7 1.8.9 1.8 1.1 1.8 1.2 1.9 1.3 1.8 1.5 1.9 1.6 1.9 1.8 1.8 1.9 1.9 2 1.9 2.2 1.8 2.3 1.9 2.5 1.8 2.5 1.8 2.7 1.8 2.8 1.8 3 1.8 3 1.7 3.1 1.6 3.1 1.6 3.2 1.4 3.2 1.4 3.2 1.4 3.2 1.2 3.2 1.2 3.3 1.1 3.2 1 3.3 1 3.2.8 3.2.8 3.2.7 3.2.6 3.1.5 3.1.5 3 .3 3 .3 2.9.1 2.9.1h2.8l2.8-.1 2.6-.2 2.6-.2 2.4-.4 2.4-.5 2.3-.5 2.2-.7 2-.8 1.9-.8 1.8-1 1.7-1 1.5-1.1 1.3-1.2 1.1-1.3 1-1.3.8-1.3.6-1.5.5-1.4.4-1.6.1-1.5v9l-.1 1.6-.4 1.5-.5 1.5-.6 1.4-.8 1.4-1 1.3-1.1 1.2-1.3 1.2-1.5 1.1-1.7 1.1-1.8.9-1.9.9-2 .7-2.2.7-2.3.6-2.4.4-2.4.4-2.6.3-2.6.2-2.8.1h-2.8l-2.9-.1-2.9-.2-3-.2-3-.4-3.1-.4-3.1-.6-3.2-.6-3.2-.7-3.2-.7-3.2-.9-3.3-.9-3.2-1-3.3-1.1-3.2-1.2-3.2-1.3-3.2-1.3-3.2-1.4-3.2-1.5-3.1-1.5-3.1-1.7-3-1.7-3-1.7-2.8-1.8-2.7-1.8-2.5-1.8-2.5-1.9-2.3-1.8-2.2-1.9-2-1.8-1.9-1.9-1.8-1.9-1.6-1.9-1.5-1.8z"/>
    <path id="C" d="M310.5 477.4l-5.9-.3-6.1-.6-6.3-1-6.4-1.3-6.5-1.6-6.6-2-6.6-2.3-6.5-2.6-6.4-2.9-6.3-3.2-6-3.5-5.6-3.6-5.1-3.7-4.6-3.8-2.1-1.9-1.9-1.9-1.8-1.9-1.7-1.9-1.5-1.9-1.4-1.9v-.1l-1.2-1.8-1.1-1.9-1-1.9-.8-1.9-.6-1.9-.5-1.8-.3-1.8-.2-1.8v-9.2a1.58 1.58 0 0 1 1.6-1.6c.9 0 1.6.6 1.7 1.5l.1 1.7.3 1.6.4 1.6.6 1.6.7 1.7.9 1.7 1 1.7 1.2 1.8 1.3 1.8 1.4 1.8 1.6 1.8 1.7 1.8 3.9 3.7 4.4 3.6 4.9 3.6 5.4 3.5 5.9 3.4 6.1 3.1 6.3 2.9 6.4 2.6 6.4 2.2 6.4 1.9 6.4 1.6 6.3 1.3 6.1.9 6 .6 5.7.3 5.4-.1 5.1-.5 2.4-.4 2.3-.5 2.2-.5 2.1-.6 2-.7 1.8-.8 1.7-.9 1.5-1 1.4-1 1.2-1.1 1-1.1.9-1.2.7-1.2.6-1.3.4-1.3.3-1.4.1-1.4c.1-.9.8-1.5 1.7-1.5s1.5.8 1.5 1.6v9l-.2 1.7-.3 1.7-.5 1.7-.7 1.6-.9 1.5-1.1 1.5-1.2 1.4-1.4 1.3-1.6 1.2-1.8 1.1-1.9 1-2 .9-2.1.8-2.3.7-2.4.6-2.5.5-2.5.4-2.6.3-2.7.2h-5.7zm-92.6-45.8l1.3 1.8 1.4 1.8 1.6 1.8 1.7 1.8 3.9 3.7 4.4 3.6 4.9 3.6 5.4 3.5 5.9 3.4 6.1 3.1 6.3 2.9 6.4 2.6 6.4 2.2 6.4 1.9 6.4 1.6 6.3 1.3 6.1.9 6 .6 5.7.3 5.4-.1 5.1-.5 2.4-.4 2.3-.5 2.2-.5 2.1-.6 2-.7 1.8-.8 1.7-.9 1.5-1 1.4-1 1.2-1.1 1-1.1.9-1.2.7-1.2.6-1.3.4-1.3.3-1.4.1-1.2-.4.6-1.2 1.4-1.4 1.3-1.6 1.2-1.8 1.1-1.9 1-2 .9-2.1.8-2.3.7-2.4.6-2.5.5-2.5.4-2.6.3-2.7.2-5.6.1-5.9-.3-6.1-.6-6.3-1-6.4-1.3-6.5-1.6-6.6-2-6.6-2.3-6.5-2.6-6.4-2.9-6.3-3.2-6-3.5-5.6-3.6-5.1-3.7-4.6-3.8-2.1-1.9-1.9-1.9-1.8-1.9-1.7-1.9-1.5-1.9-1.4-1.9-2.1-3.5.1.5.4 1.6.6 1.6.7 1.7.9 1.7 1 1.7 1 1.8z"/>
    <path id="D" d="M311.8 408.6c32.1 18.5 43.1 42.2 24.5 52.9-18.5 10.7-59.6 4.4-91.7-14.2-32.1-18.5-43.1-42.2-24.5-52.9 18.6-10.6 59.6-4.3 91.7 14.2z"/>
    <path id="E" d="M311.9 468.3c-20.4 0-46.3-7-68-19.5-21.5-12.4-34.3-27.4-34.3-40.2 0-6.5 3.4-11.9 9.8-15.6 19-10.9 60.8-4.6 93.3 14.2 21.5 12.4 34.3 27.4 34.3 40.2 0 6.5-3.4 11.9-9.8 15.6-6.3 3.6-15.2 5.3-25.3 5.3zm-67.2-77.4c-9.6 0-17.8 1.6-23.7 5-5.4 3.1-8.2 7.4-8.2 12.7 0 11.4 12.5 25.7 32.7 37.3 31.6 18.2 72 24.6 90 14.2 5.4-3.1 8.2-7.4 8.2-12.7 0-11.4-12.5-25.7-32.7-37.3h0c-21.3-12.3-46.6-19.2-66.3-19.2z"/>
    <path id="F" d="M289.9 440.1c-.3 0-.6-.1-.8-.2l-36.5-21.1c-.5-.3-.8-.8-.8-1.4v-63.1c0-.6.3-1.1.8-1.4s1.1-.3 1.6 0l36.5 21.1c.5.3.8.8.8 1.4v63.1c0 .6-.3 1.1-.8 1.4-.2.1-.5.2-.8.2zM255 416.5l33.2 19.2v-59.3L255 357.1v59.4z"/>
    <path id="G" d="M289.9 440.1c-.3 0-.6-.1-.8-.2-.5-.3-.8-.8-.8-1.4v-63.1c0-.6.3-1.1.8-1.4l11.8-6.8c.5-.3 1.1-.3 1.6 0s.8.8.8 1.4v63.1c0 .6-.3 1.1-.8 1.4l-11.8 6.8c-.2.1-.5.2-.8.2zm1.6-63.8v59.3l8.5-4.9v-59.3l-8.5 4.9z"/>
    <path id="H" d="M289.9 377c-.3 0-.6-.1-.8-.2l-36.5-21.1c-.5-.3-.8-.8-.8-1.4s.3-1.1.8-1.4l11.8-6.8c.5-.3 1.1-.3 1.6 0l36.5 21.1c.5.3.8.8.8 1.4s-.3 1.1-.8 1.4l-11.8 6.8c-.2.1-.5.2-.8.2zm-33.2-22.7l33.2 19.2 8.5-4.9-33.2-19.2-8.5 4.9z"/>
    <path id="I" d="M405.5 451.8c-.3 0-.6-.1-.8-.2l-249-143.7c-.5-.3-.8-.8-.8-1.4V120.1c0-.6.3-1.1.8-1.4s1.1-.3 1.6 0l248.9 143.7c.5.3.8.8.8 1.4v186.4c0 .6-.3 1.1-.8 1.4-.1.2-.4.2-.7.2zM158.2 305.5l245.7 141.8V264.8L158.2 123v182.5z"/>
    <path id="J" d="M405.5 451.8c-.3 0-.6-.1-.8-.2-.5-.3-.8-.8-.8-1.4V263.9c0-.6.3-1.1.8-1.4l10.3-5.9c.5-.3 1.1-.3 1.6 0s.8.8.8 1.4v186.4c0 .6-.3 1.1-.8 1.4l-10.3 5.9c-.2.1-.5.1-.8.1zm1.6-187v182.6l7-4V260.8l-7 4z"/>
    <path id="K" d="M362.1 396.9h0c1.6 1.6 2.4 4.1 2.1 5.8s-1.8 2.3-3.5 1.3-3.1-3.2-3.5-5.3c-.3-2.1.6-3.5 2.1-3.3l.2.6c-1.4-.1-2.1 1.1-1.9 2.9.3 1.8 1.6 3.8 3 4.6 1.5.9 2.7.4 3-1.1s-.5-3.6-1.9-5.1c.2 0 .4-.4.4-.4z"/>
    <path id="L" d="M362.3 404.7c-.5 0-1.1-.2-1.7-.5-1.7-1-3.3-3.3-3.6-5.5-.2-1.3 0-2.4.6-3 .4-.5 1-.7 1.7-.6l.2.2.2.6-.3.3c-.5-.1-.9.1-1.1.4-.4.5-.6 1.3-.4 2.3.3 1.8 1.5 3.6 2.9 4.5.7.4 1.3.5 1.8.3.4-.2.7-.6.8-1.2.3-1.4-.5-3.5-1.8-4.8v-.3l.2-.4.4-.1c1.6 1.7 2.5 4.2 2.2 6-.2.9-.6 1.5-1.2 1.8h-.9zm-.9-.6c.6.2 1.1.2 1.5 0 .5-.2.8-.7 1-1.4v-.1c-.2.7-.5 1.1-1.1 1.4-.3.2-.8.2-1.4.1zm-2.3-8.5c-.5 0-.8.2-1.1.5s-.4.7-.5 1.1c.1-.4.3-.7.5-1 .3-.3.7-.5 1.1-.6h0 0z"/>
    <path id="M" d="M352.1 380c-.4 0-.7-.1-1.1-.3-1.1-.6-2-2.1-2-3.4 0-.8.3-1.4.9-1.7.5-.3 1.2-.3 1.9.1 1.1.6 2 2.1 2 3.4 0 .8-.3 1.4-.9 1.7-.2.1-.5.2-.8.2zm-1.4-4v.3c0 .7.5 1.6 1.1 2 .2.1.3.1.3.1h0v-.3c0-.7-.5-1.6-1.1-2-.1-.1-.2-.1-.3-.1h0z"/>
    <path id="N" d="M361.3 419.1c-.3 0-.6-.1-1-.3-.9-.5-1.6-1.7-1.6-2.8 0-.7.3-1.2.8-1.5s1.1-.3 1.7.1c.9.5 1.6 1.7 1.6 2.8 0 .7-.3 1.2-.8 1.5-.2.2-.5.2-.7.2zm-1-3c0 .5.4 1.1.8 1.4 0-.5-.4-1.2-.8-1.4z"/>
    <path id="O" d="M361.1 418.6c-.2 0-.5-.1-.8-.2-.7-.4-1.2-1.3-1.2-2 0-.5.2-1 .6-1.2s.9-.2 1.4.1c.7.4 1.2 1.3 1.2 2 0 .5-.2 1-.6 1.2-.2 0-.4.1-.6.1z"/>
    <path id="P" d="M361 412.6c-.2 0-.5-.1-.7-.2-.6-.4-1.1-1.1-1.1-1.9 0-.5.2-.9.6-1.1s.8-.2 1.3 0c.6.4 1.1 1.1 1.1 1.9 0 .5-.2.9-.6 1.1-.2.1-.4.2-.6.2zm-.4-1.3h.8-.8z"/>
    <path id="Q" d="M1090.2 1075.8l-51.7-29.9v-12.8l51.7 29.9v12.8zm-48.9-31.6l46.1 26.7v-6.2l-46.1-26.7v6.2z"/>
    <path id="R" d="M1695.2 503.4l-1.2-1.8-1-1.9-1-1.8-.7-1.7-.6-1.8-.5-1.7-.3-1.7-.1-1.7v-9l.1 1.6.3 1.7.5 1.7.6 1.8.7 1.8 1 1.8 1 1.8 1.2 1.9 1.3 1.8 1.5 1.9 1.7 1.9 1.7 1.8 1.9 1.9 2.1 1.9 2.1 1.8 2.3 1.9 2.5 1.8 2.5 1.8 2.7 1.8 2.8 1.8 3 1.8 3 1.7 3.1 1.6 3.1 1.6 3.2 1.4 3.2 1.4 3.2 1.4 3.2 1.2 3.2 1.2 3.3 1.1 3.2 1 3.3 1 3.2.8 3.2.8 3.2.7 3.2.6 3.1.5 3.1.5 3 .3 3 .3 2.9.1 2.9.1h2.8l2.8-.1 2.6-.2 2.6-.2 2.4-.4 2.4-.5 2.3-.5 2.2-.7 2-.8 1.9-.8 1.8-1 1.7-1 1.5-1.1 1.3-1.2 1.1-1.3 1-1.3.8-1.3.6-1.5.5-1.4.4-1.6.1-1.5v9l-.1 1.6-.4 1.5-.5 1.5-.6 1.4-.8 1.4-1 1.3-1.1 1.2-1.3 1.2-1.5 1.1-1.7 1.1-1.8.9-1.9.9-2 .7-2.2.7-2.3.6-2.4.4-2.4.4-2.6.3-2.6.2-2.8.1h-2.8l-2.9-.1-2.9-.2-3-.2-3-.4-3.1-.4-3.1-.6-3.2-.6-3.2-.7-3.2-.7-3.2-.9-3.3-.9-3.2-1-3.3-1.1-3.2-1.2-3.2-1.3-3.2-1.3-3.2-1.4-3.2-1.5-3.1-1.5-3.1-1.7-3-1.7-3-1.7-2.8-1.8-2.7-1.8-2.5-1.8-2.5-1.9-2.3-1.8-2.1-1.9-2.1-1.8-1.9-1.9-1.7-1.9-1.7-1.9-1.5-1.8z"/>
    <path id="S" d="M1768.5 511c-.3 0-.6-.1-.8-.2l-36.5-21.1c-.5-.3-.8-.8-.8-1.4v-63.1c0-.6.3-1.1.8-1.4s1.1-.3 1.6 0l36.5 21.1c.5.3.8.8.8 1.4v63.1c0 .6-.3 1.1-.8 1.4-.2.1-.5.2-.8.2zm-34.9-23.6l33.2 19.2v-59.3l-33.2-19.2v59.3z"/>
    <path id="T" d="M1884.1 522.7c-.3 0-.6-.1-.8-.2l-248.9-143.7c-.5-.3-.8-.8-.8-1.4V191c0-.6.3-1.1.8-1.4s1.1-.3 1.6 0l248.9 143.7c.5.3.8.8.8 1.4v186.4c0 .6-.3 1.1-.8 1.4-.2.2-.5.2-.8.2zm-247.3-146.3l245.7 141.8V335.7l-245.7-141.8v182.5z"/>
    <path id="U" d="M1884.1 522.7c-.3 0-.6-.1-.8-.2-.5-.3-.8-.8-.8-1.4V334.8c0-.6.3-1.1.8-1.4l10.3-5.9c.5-.3 1.1-.3 1.6 0s.8.8.8 1.4v186.4c0 .6-.3 1.1-.8 1.4l-10.3 5.9c-.2.1-.5.1-.8.1zm1.6-187v182.6l7-4V331.7l-7 4z"/>
    <path id="V" d="M234.5 1768.2l-1.2-1.9-1-1.8-.9-1.8-.8-1.8-.6-1.7-.4-1.8-.4-1.7-.1-1.6v-9.1l.1 1.7.4 1.7.4 1.7.6 1.8.8 1.8.9 1.8 1 1.8 1.2 1.8 1.4 1.9 1.5 1.9 1.6 1.8 1.7 1.9 1.9 1.9 2.1 1.8 2.2 1.9 2.3 1.9 2.4 1.8 2.6 1.8 2.6 1.8 2.9 1.8 2.9 1.7 3 1.7 3.1 1.7 3.1 1.5 3.2 1.5 3.2 1.4 3.2 1.3 3.2 1.3 3.3 1.2 3.2 1.1 3.2 1 3.3.9 3.2.9 3.2.8 3.2.7 3.2.6 3.1.5 3.1.4 3 .4 3 .2 3 .2 2.9.1h2.8l2.7-.1 2.6-.2 2.6-.3 2.5-.3 2.3-.5 2.3-.6 2.2-.6 2-.8 2-.8 1.8-1 1.6-1 1.5-1.1 1.3-1.2 1.1-1.3 1-1.3.8-1.4.7-1.4.5-1.5.3-1.5.1-1.6v9.1l-.1 1.5-.3 1.6-.5 1.5-.7 1.4-.8 1.4-1 1.3-1.1 1.2-1.3 1.2-1.5 1.1-1.6 1.1-1.8.9-2 .9-2 .7-2.2.7-2.3.5-2.3.5-2.5.4-2.6.3-2.6.1-2.7.1h-2.8-2.9l-3-.2-3-.3-3-.3-3.1-.5-3.1-.5-3.2-.6-3.2-.7-3.2-.8-3.2-.8-3.3-1-3.2-1-3.2-1.1-3.3-1.1-3.2-1.3-3.2-1.3-3.2-1.4-3.2-1.5-3.1-1.6-3.1-1.6-3-1.7-2.9-1.8-2.9-1.7-2.6-1.8-2.6-1.9-2.4-1.8-2.3-1.8-2.2-1.9-2.1-1.9-1.9-1.9-1.7-1.8-1.6-1.9-1.5-1.9z"/>
    <path id="W" d="M307.8 1775.8c-.3 0-.6-.1-.8-.2l-36.5-21.1c-.5-.3-.8-.8-.8-1.4V1690c0-.6.3-1.1.8-1.4s1.1-.3 1.6 0l36.5 21.1c.5.3.8.8.8 1.4v63.1c0 .6-.3 1.1-.8 1.4-.2.1-.5.2-.8.2zm-34.8-23.7l33.2 19.2V1712l-33.2-19.2v59.3z"/>
    <path id="X" d="M307.8 1775.8c-.3 0-.6-.1-.8-.2-.5-.3-.8-.8-.8-1.4V1711c0-.6.3-1.1.8-1.4l11.8-6.8c.5-.3 1.1-.3 1.6 0s.8.8.8 1.4v63.1c0 .6-.3 1.1-.8 1.4l-11.8 6.8c-.2.2-.5.3-.8.3zm1.7-63.8v59.3l8.5-4.9v-59.3l-8.5 4.9z"/>
    <path id="Y" d="M423.4 1787.5c-.3 0-.6-.1-.8-.2l-248.9-143.7c-.5-.3-.8-.8-.8-1.4v-186.4c0-.6.3-1.1.8-1.4s1.1-.3 1.6 0l248.9 143.7c.5.3.8.8.8 1.4v186.4c0 .6-.3 1.1-.8 1.4-.2.1-.5.2-.8.2zm-247.3-146.3L421.8 1783v-182.6l-245.7-141.8v182.6z"/>
    <path id="Z" d="M423.4 1787.5c-.3 0-.6-.1-.8-.2-.5-.3-.8-.8-.8-1.4v-186.4c0-.6.3-1.1.8-1.4l10.3-5.9c.5-.3 1.1-.3 1.6 0s.8.8.8 1.4V1780c0 .6-.3 1.1-.8 1.4l-10.3 5.9c-.2.1-.5.2-.8.2zm1.7-187V1783l7-4v-182.6l-7 4.1z"/>
    <path id="a" d="M391.4 1711.2h-1.6l-41.5-24v-2.8l183.5-105.9h1.6l41.5 24v2.8l-183.5 105.9zm-39.1-25.4l38.3 22.1 180.2-104.1-38.3-22.1-180.2 104.1z"/>
    <path id="b" d="M1708.8 1751.3l-1.2-1.8-1.1-1.9-.9-1.8-.7-1.8-.6-1.7-.5-1.7-.3-1.7-.1-1.7v-9l.1 1.6.3 1.7.5 1.7.6 1.8.7 1.8.9 1.8 1.1 1.8 1.2 1.9 1.3 1.8 1.5 1.9 1.6 1.8 1.8 1.9 1.9 1.9 2 1.9 2.2 1.8 2.3 1.9 2.4 1.8 2.6 1.8 2.7 1.8 2.8 1.8 3 1.8 3 1.7 3.1 1.6 3.1 1.6 3.2 1.4 3.1 1.4 3.2 1.4 3.3 1.2 3.2 1.2 3.3 1.1 3.2 1 3.2 1 3.3.8 3.2.8 3.2.7 3.1.6 3.2.5 3.1.4 3 .4 3 .3 2.9.1 2.9.1h2.8l2.7-.1 2.7-.2 2.6-.2 2.4-.4 2.4-.5 2.3-.5 2.1-.7 2.1-.8 1.9-.8 1.8-1 1.7-1 1.5-1.1 1.3-1.2 1.1-1.3 1-1.3.8-1.3.6-1.5.5-1.4.3-1.6.2-1.6v9.1l-.2 1.6-.3 1.5-.5 1.5-.6 1.4-.8 1.4-1 1.3-1.1 1.2-1.3 1.2-1.5 1.1-1.7 1.1-1.8.9-1.9.9-2.1.7-2.1.7-2.3.6-2.4.4-2.4.4-2.6.3-2.7.2-2.7.1h-2.8l-2.9-.1-2.9-.2-3-.3-3-.3-3.1-.4-3.2-.6-3.1-.6-3.2-.7-3.2-.7-3.3-.9-3.2-.9-3.2-1.1-3.3-1-3.2-1.2-3.3-1.3-3.2-1.3-3.1-1.4-3.2-1.5-3.1-1.6-3.1-1.6-3-1.7-3-1.7-2.8-1.8-2.7-1.8-2.6-1.8-2.4-1.9-2.3-1.8-2.2-1.9-2-1.9-1.9-1.8-1.8-1.9-1.6-1.9-1.5-1.8z"/>
    <path id="c" d="M1782.1 1758.9c-.3 0-.6-.1-.8-.2l-36.5-21.1c-.5-.3-.8-.8-.8-1.4v-63.1c0-.6.3-1.1.8-1.4s1.1-.3 1.6 0l36.5 21.1c.5.3.8.8.8 1.4v63.1c0 .6-.3 1.1-.8 1.4-.2.1-.5.2-.8.2zm-34.9-23.7l33.2 19.2v-59.3l-33.2-19.2v59.3z"/>
    <path id="d" d="M1897.7 1770.6c-.3 0-.6-.1-.8-.2L1648 1626.7c-.5-.3-.8-.8-.8-1.4v-186.4c0-.6.3-1.1.8-1.4s1.1-.3 1.6 0l248.9 143.7c.5.3.8.8.8 1.4V1769c0 .6-.3 1.1-.8 1.4-.2.2-.5.2-.8.2zm-247.3-146.3l245.7 141.8v-182.6l-245.7-141.8v182.6z"/>
    <path id="e" d="M1897.7 1770.6c-.3 0-.6-.1-.8-.2-.5-.3-.8-.8-.8-1.4v-186.4c0-.6.3-1.1.8-1.4l10.3-5.9c.5-.3 1.1-.3 1.6 0s.8.8.8 1.4v186.4c0 .6-.3 1.1-.8 1.4l-10.3 5.9c-.2.2-.5.2-.8.2zm1.6-187v182.6l7-4v-182.6l-7 4z"/>
    <path id="f" d="M724.6 814.6c-.3 0-.7-.1-1.1-.3-1.1-.6-1.9-2.1-1.9-3.3 0-.7.3-1.3.8-1.6s1.2-.3 1.8.1c1.1.6 1.9 2.1 1.9 3.3 0 .7-.3 1.3-.8 1.6-.1.1-.4.2-.7.2zm-1.4-4s-.1.1-.1.4c0 .7.6 1.7 1.2 2.1.2.1.3.1.4.1 0 0 .1-.1.1-.4 0-.7-.6-1.7-1.2-2.1-.2-.1-.3-.1-.4-.1z"/>
    <path id="g" d="M724.3 806.2c-.2 0-.5-.1-.8-.2-.7-.4-1.2-1.3-1.2-2.1 0-.5.2-1 .6-1.2s.9-.2 1.3.1c.7.4 1.2 1.3 1.2 2.1 0 .5-.2 1-.6 1.2-.1 0-.3.1-.5.1z"/>
    <path id="h" d="M740 759.3l-32.1-18.6v-7.9l32.1 18.6v7.9zm-30.3-19.6l28.6 16.5v-3.9l-28.6-16.5v3.9z"/>
    <path id="i" d="M1725.7 1121.8h0c2 2.1 3.1 5.2 2.7 7.4s-2.3 2.9-4.4 1.6c-2.2-1.2-4-4.1-4.4-6.8s.7-4.5 2.7-4.3l.2.7c-1.7-.2-2.7 1.4-2.4 3.8.4 2.4 2 4.8 3.9 5.9s3.5.5 3.9-1.4-.6-4.7-2.4-6.5c0 .1.2-.4.2-.4z"/>
    <path id="j" d="M1740 1066.1l-32.1-18.6v-7.9l32.1 18.6v7.9zm-30.4-19.6l28.6 16.5v-3.9l-28.6-16.5v3.9z"/>
  </defs>
  </svg>