<svg xmlns="http://www.w3.org/2000/svg" width="920" height="420" viewBox="0 0 920 420">
  <rect width="920" height="420" fill="#f8fafc"/>
  <rect x="30" y="30" width="860" height="360" rx="18" fill="#ffffff" stroke="#d7dbe2"/>
  <text x="60" y="70" font-family="Inter, Arial, sans-serif" font-size="20" fill="#1f2937">Shard Key Hotspots</text>

  <rect x="80" y="120" width="240" height="220" rx="14" fill="#f1f5f9" stroke="#cbd5f5"/>
  <text x="105" y="150" font-family="Inter, Arial, sans-serif" font-size="14" fill="#111827">Shard A</text>
  <rect x="105" y="175" width="190" height="30" rx="6" fill="#c7d2fe"/>
  <rect x="105" y="212" width="190" height="30" rx="6" fill="#c7d2fe"/>
  <rect x="105" y="249" width="190" height="30" rx="6" fill="#c7d2fe"/>
  <rect x="105" y="286" width="190" height="30" rx="6" fill="#c7d2fe"/>
  <text x="110" y="335" font-family="Inter, Arial, sans-serif" font-size="12" fill="#334155">Hot partition</text>

  <rect x="350" y="120" width="240" height="220" rx="14" fill="#f1f5f9" stroke="#cbd5f5"/>
  <text x="375" y="150" font-family="Inter, Arial, sans-serif" font-size="14" fill="#111827">Shard B</text>
  <rect x="375" y="190" width="190" height="30" rx="6" fill="#e2e8f0"/>
  <rect x="375" y="230" width="190" height="30" rx="6" fill="#e2e8f0"/>
  <text x="375" y="335" font-family="Inter, Arial, sans-serif" font-size="12" fill="#334155">Light load</text>

  <rect x="620" y="120" width="240" height="220" rx="14" fill="#f1f5f9" stroke="#cbd5f5"/>
  <text x="645" y="150" font-family="Inter, Arial, sans-serif" font-size="14" fill="#111827">Shard C</text>
  <rect x="645" y="190" width="190" height="30" rx="6" fill="#e2e8f0"/>
  <rect x="645" y="230" width="190" height="30" rx="6" fill="#e2e8f0"/>
  <text x="645" y="335" font-family="Inter, Arial, sans-serif" font-size="12" fill="#334155">Light load</text>
</svg>
