<svg xmlns="http://www.w3.org/2000/svg" viewBox="0 0 800 520" width="100%" height="100%" font-family="system-ui, sans-serif">
  <title>Convergence Timeline - 10-Node Cluster</title>
  <defs>
    <linearGradient id="bar1" x1="0" y1="0" x2="0" y2="1">
      <stop offset="0%" stop-color="#6366f1" stop-opacity="0.3"/>
      <stop offset="100%" stop-color="#6366f1" stop-opacity="0.1"/>
    </linearGradient>
    <linearGradient id="bar2" x1="0" y1="0" x2="0" y2="1">
      <stop offset="0%" stop-color="#f472b6" stop-opacity="0.3"/>
      <stop offset="100%" stop-color="#f472b6" stop-opacity="0.1"/>
    </linearGradient>
    <linearGradient id="bar3" x1="0" y1="0" x2="0" y2="1">
      <stop offset="0%" stop-color="#3b82f6" stop-opacity="0.3"/>
      <stop offset="100%" stop-color="#3b82f6" stop-opacity="0.1"/>
    </linearGradient>
  </defs>

  <!-- Background -->
  <rect width="800" height="520" fill="#f3f1f8" rx="12"/>

  <!-- Title -->
  <text x="400" y="36" text-anchor="middle" font-size="20" font-weight="bold" fill="#1a1822">Convergence Timeline -- 10-Node Cluster</text>
  <text x="400" y="58" text-anchor="middle" font-size="13" fill="#4b5563">Information spreads logarithmically: ~ln(N) rounds for all nodes to converge</text>

  <!-- Y axis: Nodes -->
  <text x="60" y="100" text-anchor="end" font-size="12" font-weight="bold" fill="#1a1822">Node 0</text>
  <text x="60" y="140" text-anchor="end" font-size="12" font-weight="bold" fill="#1a1822">Node 1</text>
  <text x="60" y="180" text-anchor="end" font-size="12" font-weight="bold" fill="#1a1822">Node 2</text>
  <text x="60" y="220" text-anchor="end" font-size="12" font-weight="bold" fill="#1a1822">Node 3</text>
  <text x="60" y="260" text-anchor="end" font-size="12" font-weight="bold" fill="#1a1822">Node 4</text>
  <text x="60" y="300" text-anchor="end" font-size="12" font-weight="bold" fill="#1a1822">Node 5</text>
  <text x="60" y="340" text-anchor="end" font-size="12" font-weight="bold" fill="#1a1822">Node 6</text>
  <text x="60" y="380" text-anchor="end" font-size="12" font-weight="bold" fill="#1a1822">Node 7</text>
  <text x="60" y="420" text-anchor="end" font-size="12" font-weight="bold" fill="#1a1822">Node 8</text>
  <text x="60" y="460" text-anchor="end" font-size="12" font-weight="bold" fill="#1a1822">Node 9</text>

  <!-- X axis: Rounds -->
  <text x="100" y="82" text-anchor="middle" font-size="11" fill="#64748b">R0</text>
  <text x="180" y="82" text-anchor="middle" font-size="11" fill="#64748b">R1</text>
  <text x="260" y="82" text-anchor="middle" font-size="11" fill="#64748b">R2</text>
  <text x="340" y="82" text-anchor="middle" font-size="11" fill="#64748b">R3</text>
  <text x="420" y="82" text-anchor="middle" font-size="11" fill="#64748b">R4</text>
  <text x="500" y="82" text-anchor="middle" font-size="11" fill="#64748b">R5</text>
  <text x="580" y="82" text-anchor="middle" font-size="11" fill="#64748b">R6</text>

  <!-- Grid lines -->
  <line x1="80" y1="90" x2="620" y2="90" stroke="#64748b" stroke-opacity="0.2" stroke-width="1"/>
  <line x1="80" y1="480" x2="620" y2="480" stroke="#64748b" stroke-opacity="0.2" stroke-width="1"/>

  <!-- Convergence grid: each cell shows if node has the info -->
  <!-- Row 0: source, always informed -->
  <rect x="80" y="90" width="80" height="40" rx="4" fill="#4f46e5" fill-opacity="0.3" stroke="#4f46e5" stroke-width="1.5"/>
  <rect x="160" y="90" width="80" height="40" rx="4" fill="#4f46e5" fill-opacity="0.3" stroke="#4f46e5" stroke-width="1.5"/>
  <rect x="240" y="90" width="80" height="40" rx="4" fill="#4f46e5" fill-opacity="0.3" stroke="#4f46e5" stroke-width="1.5"/>
  <rect x="320" y="90" width="80" height="40" rx="4" fill="#4f46e5" fill-opacity="0.3" stroke="#4f46e5" stroke-width="1.5"/>
  <rect x="400" y="90" width="80" height="40" rx="4" fill="#4f46e5" fill-opacity="0.3" stroke="#4f46e5" stroke-width="1.5"/>
  <rect x="480" y="90" width="80" height="40" rx="4" fill="#4f46e5" fill-opacity="0.3" stroke="#4f46e5" stroke-width="1.5"/>
  <rect x="560" y="90" width="60" height="40" rx="4" fill="#4f46e5" fill-opacity="0.3" stroke="#4f46e5" stroke-width="1.5"/>

  <!-- Row 1: informed R1 -->
  <rect x="80" y="130" width="80" height="40" rx="4" fill="#4b5563" fill-opacity="0.1" stroke="#94a3b8" stroke-width="1"/>
  <rect x="160" y="130" width="80" height="40" rx="4" fill="#db2777" fill-opacity="0.3" stroke="#db2777" stroke-width="1.5"/>
  <rect x="240" y="130" width="80" height="40" rx="4" fill="#db2777" fill-opacity="0.3" stroke="#db2777" stroke-width="1.5"/>
  <rect x="320" y="130" width="80" height="40" rx="4" fill="#db2777" fill-opacity="0.3" stroke="#db2777" stroke-width="1.5"/>
  <rect x="400" y="130" width="80" height="40" rx="4" fill="#db2777" fill-opacity="0.3" stroke="#db2777" stroke-width="1.5"/>
  <rect x="480" y="130" width="80" height="40" rx="4" fill="#db2777" fill-opacity="0.3" stroke="#db2777" stroke-width="1.5"/>
  <rect x="560" y="130" width="60" height="40" rx="4" fill="#db2777" fill-opacity="0.3" stroke="#db2777" stroke-width="1.5"/>

  <!-- Row 2: informed R1 -->
  <rect x="80" y="170" width="80" height="40" rx="4" fill="#4b5563" fill-opacity="0.1" stroke="#94a3b8" stroke-width="1"/>
  <rect x="160" y="170" width="80" height="40" rx="4" fill="#db2777" fill-opacity="0.3" stroke="#db2777" stroke-width="1.5"/>
  <rect x="240" y="170" width="80" height="40" rx="4" fill="#db2777" fill-opacity="0.3" stroke="#db2777" stroke-width="1.5"/>
  <rect x="320" y="170" width="80" height="40" rx="4" fill="#db2777" fill-opacity="0.3" stroke="#db2777" stroke-width="1.5"/>
  <rect x="400" y="170" width="80" height="40" rx="4" fill="#db2777" fill-opacity="0.3" stroke="#db2777" stroke-width="1.5"/>
  <rect x="480" y="170" width="80" height="40" rx="4" fill="#db2777" fill-opacity="0.3" stroke="#db2777" stroke-width="1.5"/>
  <rect x="560" y="170" width="60" height="40" rx="4" fill="#db2777" fill-opacity="0.3" stroke="#db2777" stroke-width="1.5"/>

  <!-- Row 3: informed R2 -->
  <rect x="80" y="210" width="80" height="40" rx="4" fill="#4b5563" fill-opacity="0.1" stroke="#94a3b8" stroke-width="1"/>
  <rect x="160" y="210" width="80" height="40" rx="4" fill="#4b5563" fill-opacity="0.1" stroke="#94a3b8" stroke-width="1"/>
  <rect x="240" y="210" width="80" height="40" rx="4" fill="#2563eb" fill-opacity="0.3" stroke="#2563eb" stroke-width="1.5"/>
  <rect x="320" y="210" width="80" height="40" rx="4" fill="#2563eb" fill-opacity="0.3" stroke="#2563eb" stroke-width="1.5"/>
  <rect x="400" y="210" width="80" height="40" rx="4" fill="#2563eb" fill-opacity="0.3" stroke="#2563eb" stroke-width="1.5"/>
  <rect x="480" y="210" width="80" height="40" rx="4" fill="#2563eb" fill-opacity="0.3" stroke="#2563eb" stroke-width="1.5"/>
  <rect x="560" y="210" width="60" height="40" rx="4" fill="#2563eb" fill-opacity="0.3" stroke="#2563eb" stroke-width="1.5"/>

  <!-- Row 4: informed R2 -->
  <rect x="80" y="250" width="80" height="40" rx="4" fill="#4b5563" fill-opacity="0.1" stroke="#94a3b8" stroke-width="1"/>
  <rect x="160" y="250" width="80" height="40" rx="4" fill="#4b5563" fill-opacity="0.1" stroke="#94a3b8" stroke-width="1"/>
  <rect x="240" y="250" width="80" height="40" rx="4" fill="#2563eb" fill-opacity="0.3" stroke="#2563eb" stroke-width="1.5"/>
  <rect x="320" y="250" width="80" height="40" rx="4" fill="#2563eb" fill-opacity="0.3" stroke="#2563eb" stroke-width="1.5"/>
  <rect x="400" y="250" width="80" height="40" rx="4" fill="#2563eb" fill-opacity="0.3" stroke="#2563eb" stroke-width="1.5"/>
  <rect x="480" y="250" width="80" height="40" rx="4" fill="#2563eb" fill-opacity="0.3" stroke="#2563eb" stroke-width="1.5"/>
  <rect x="560" y="250" width="60" height="40" rx="4" fill="#2563eb" fill-opacity="0.3" stroke="#2563eb" stroke-width="1.5"/>

  <!-- Row 5: informed R3 -->
  <rect x="80" y="290" width="80" height="40" rx="4" fill="#4b5563" fill-opacity="0.1" stroke="#94a3b8" stroke-width="1"/>
  <rect x="160" y="290" width="80" height="40" rx="4" fill="#4b5563" fill-opacity="0.1" stroke="#94a3b8" stroke-width="1"/>
  <rect x="240" y="290" width="80" height="40" rx="4" fill="#4b5563" fill-opacity="0.1" stroke="#94a3b8" stroke-width="1"/>
  <rect x="320" y="290" width="80" height="40" rx="4" fill="#16a34a" fill-opacity="0.3" stroke="#16a34a" stroke-width="1.5"/>
  <rect x="400" y="290" width="80" height="40" rx="4" fill="#16a34a" fill-opacity="0.3" stroke="#16a34a" stroke-width="1.5"/>
  <rect x="480" y="290" width="80" height="40" rx="4" fill="#16a34a" fill-opacity="0.3" stroke="#16a34a" stroke-width="1.5"/>
  <rect x="560" y="290" width="60" height="40" rx="4" fill="#16a34a" fill-opacity="0.3" stroke="#16a34a" stroke-width="1.5"/>

  <!-- Row 6: informed R3 -->
  <rect x="80" y="330" width="80" height="40" rx="4" fill="#4b5563" fill-opacity="0.1" stroke="#94a3b8" stroke-width="1"/>
  <rect x="160" y="330" width="80" height="40" rx="4" fill="#4b5563" fill-opacity="0.1" stroke="#94a3b8" stroke-width="1"/>
  <rect x="240" y="330" width="80" height="40" rx="4" fill="#4b5563" fill-opacity="0.1" stroke="#94a3b8" stroke-width="1"/>
  <rect x="320" y="330" width="80" height="40" rx="4" fill="#16a34a" fill-opacity="0.3" stroke="#16a34a" stroke-width="1.5"/>
  <rect x="400" y="330" width="80" height="40" rx="4" fill="#16a34a" fill-opacity="0.3" stroke="#16a34a" stroke-width="1.5"/>
  <rect x="480" y="330" width="80" height="40" rx="4" fill="#16a34a" fill-opacity="0.3" stroke="#16a34a" stroke-width="1.5"/>
  <rect x="560" y="330" width="60" height="40" rx="4" fill="#16a34a" fill-opacity="0.3" stroke="#16a34a" stroke-width="1.5"/>

  <!-- Row 7: informed R4 -->
  <rect x="80" y="370" width="80" height="40" rx="4" fill="#4b5563" fill-opacity="0.1" stroke="#94a3b8" stroke-width="1"/>
  <rect x="160" y="370" width="80" height="40" rx="4" fill="#4b5563" fill-opacity="0.1" stroke="#94a3b8" stroke-width="1"/>
  <rect x="240" y="370" width="80" height="40" rx="4" fill="#4b5563" fill-opacity="0.1" stroke="#94a3b8" stroke-width="1"/>
  <rect x="320" y="370" width="80" height="40" rx="4" fill="#4b5563" fill-opacity="0.1" stroke="#94a3b8" stroke-width="1"/>
  <rect x="400" y="370" width="80" height="40" rx="4" fill="#d97706" fill-opacity="0.3" stroke="#d97706" stroke-width="1.5"/>
  <rect x="480" y="370" width="80" height="40" rx="4" fill="#d97706" fill-opacity="0.3" stroke="#d97706" stroke-width="1.5"/>
  <rect x="560" y="370" width="60" height="40" rx="4" fill="#d97706" fill-opacity="0.3" stroke="#d97706" stroke-width="1.5"/>

  <!-- Row 8: informed R4 -->
  <rect x="80" y="410" width="80" height="40" rx="4" fill="#4b5563" fill-opacity="0.1" stroke="#94a3b8" stroke-width="1"/>
  <rect x="160" y="410" width="80" height="40" rx="4" fill="#4b5563" fill-opacity="0.1" stroke="#94a3b8" stroke-width="1"/>
  <rect x="240" y="410" width="80" height="40" rx="4" fill="#4b5563" fill-opacity="0.1" stroke="#94a3b8" stroke-width="1"/>
  <rect x="320" y="410" width="80" height="40" rx="4" fill="#4b5563" fill-opacity="0.1" stroke="#94a3b8" stroke-width="1"/>
  <rect x="400" y="410" width="80" height="40" rx="4" fill="#d97706" fill-opacity="0.3" stroke="#d97706" stroke-width="1.5"/>
  <rect x="480" y="410" width="80" height="40" rx="4" fill="#d97706" fill-opacity="0.3" stroke="#d97706" stroke-width="1.5"/>
  <rect x="560" y="410" width="60" height="40" rx="4" fill="#d97706" fill-opacity="0.3" stroke="#d97706" stroke-width="1.5"/>

  <!-- Row 9: informed R5 (last) -->
  <rect x="80" y="450" width="80" height="40" rx="4" fill="#4b5563" fill-opacity="0.1" stroke="#94a3b8" stroke-width="1"/>
  <rect x="160" y="450" width="80" height="40" rx="4" fill="#4b5563" fill-opacity="0.1" stroke="#94a3b8" stroke-width="1"/>
  <rect x="240" y="450" width="80" height="40" rx="4" fill="#4b5563" fill-opacity="0.1" stroke="#94a3b8" stroke-width="1"/>
  <rect x="320" y="450" width="80" height="40" rx="4" fill="#4b5563" fill-opacity="0.1" stroke="#94a3b8" stroke-width="1"/>
  <rect x="400" y="450" width="80" height="40" rx="4" fill="#4b5563" fill-opacity="0.1" stroke="#94a3b8" stroke-width="1"/>
  <rect x="480" y="450" width="80" height="40" rx="4" fill="#dc2626" fill-opacity="0.3" stroke="#dc2626" stroke-width="1.5"/>
  <rect x="560" y="450" width="60" height="40" rx="4" fill="#dc2626" fill-opacity="0.3" stroke="#dc2626" stroke-width="1.5"/>

  <!-- Informed count per round -->
  <text x="120" y="500" text-anchor="middle" font-size="11" font-weight="bold" fill="#4f46e5">1</text>
  <text x="200" y="500" text-anchor="middle" font-size="11" font-weight="bold" fill="#db2777">3</text>
  <text x="280" y="500" text-anchor="middle" font-size="11" font-weight="bold" fill="#2563eb">5</text>
  <text x="360" y="500" text-anchor="middle" font-size="11" font-weight="bold" fill="#16a34a">7</text>
  <text x="440" y="500" text-anchor="middle" font-size="11" font-weight="bold" fill="#d97706">9</text>
  <text x="520" y="500" text-anchor="middle" font-size="11" font-weight="bold" fill="#dc2626">10</text>
  <text x="590" y="500" text-anchor="middle" font-size="11" font-weight="bold" fill="#dc2626">10</text>

  <!-- Legend -->
  <rect x="640" y="120" width="140" height="100" rx="6" fill="#4f46e5" fill-opacity="0.05" stroke="#4f46e5" stroke-opacity="0.3" stroke-width="1"/>
  <text x="650" y="142" font-size="12" font-weight="bold" fill="#1a1822">Legend</text>
  <rect x="650" y="152" width="14" height="14" rx="3" fill="#4b5563" fill-opacity="0.1" stroke="#94a3b8" stroke-width="1"/>
  <text x="672" y="164" font-size="11" fill="#4b5563">Uninformed</text>
  <rect x="650" y="172" width="14" height="14" rx="3" fill="#4f46e5" fill-opacity="0.3" stroke="#4f46e5" stroke-width="1.5"/>
  <text x="672" y="184" font-size="11" fill="#4b5563">Informed</text>
  <text x="650" y="205" font-size="10" fill="#64748b">Convergence:</text>
  <text x="650" y="218" font-size="10" fill="#64748b">~ln(10) approx 5 rounds</text>

  <!-- Convergence line annotation -->
  <text x="520" y="440" text-anchor="middle" font-size="12" font-weight="bold" fill="#16a34a">All nodes</text>
  <text x="520" y="456" text-anchor="middle" font-size="12" font-weight="bold" fill="#16a34a">converged</text>
</svg>
