<?xml version="1.0" encoding="UTF-8"?><svg xmlns="http://www.w3.org/2000/svg" xmlns:xlink="http://www.w3.org/1999/xlink" fill-opacity="1" color-rendering="auto" color-interpolation="auto" text-rendering="auto" stroke="black" stroke-linecap="square" width="568" stroke-miterlimit="10" shape-rendering="auto" stroke-opacity="1" fill="black" stroke-dasharray="none" font-weight="normal" stroke-width="1" height="424" font-family="'Dialog'" font-style="normal" stroke-linejoin="miter" font-size="12px" stroke-dashoffset="0" image-rendering="auto">
  <!--Generated by ySVG 2.5-->
  <defs id="genericDefs"/>
  <g>
    <defs id="defs1">
      <linearGradient x1="269" gradientUnits="userSpaceOnUse" x2="349" y1="246" y2="286" id="linearGradient1" spreadMethod="reflect">
        <stop stop-opacity="1" stop-color="rgb(232,238,247)" offset="0%"/>
        <stop stop-opacity="1" stop-color="rgb(183,201,227)" offset="100%"/>
      </linearGradient>
      <linearGradient x1="580" gradientUnits="userSpaceOnUse" x2="660" y1="246" y2="286" id="linearGradient2" spreadMethod="reflect">
        <stop stop-opacity="1" stop-color="rgb(232,238,247)" offset="0%"/>
        <stop stop-opacity="1" stop-color="rgb(183,201,227)" offset="100%"/>
      </linearGradient>
      <linearGradient x1="269" gradientUnits="userSpaceOnUse" x2="349" y1="80" y2="120" id="linearGradient3" spreadMethod="reflect">
        <stop stop-opacity="1" stop-color="rgb(232,238,247)" offset="0%"/>
        <stop stop-opacity="1" stop-color="rgb(183,201,227)" offset="100%"/>
      </linearGradient>
      <linearGradient x1="580" gradientUnits="userSpaceOnUse" x2="660" y1="80" y2="120" id="linearGradient4" spreadMethod="reflect">
        <stop stop-opacity="1" stop-color="rgb(232,238,247)" offset="0%"/>
        <stop stop-opacity="1" stop-color="rgb(183,201,227)" offset="100%"/>
      </linearGradient>
      <clipPath clipPathUnits="userSpaceOnUse" id="clipPath1">
        <path d="M0 0 L568 0 L568 424 L0 424 L0 0 Z"/>
      </clipPath>
      <clipPath clipPathUnits="userSpaceOnUse" id="clipPath2">
        <path d="M170 -24 L738 -24 L738 400 L170 400 L170 -24 Z"/>
      </clipPath>
    </defs>
    <g fill="white" text-rendering="geometricPrecision" shape-rendering="geometricPrecision" transform="translate(-170,24)" stroke="white">
      <rect x="170" width="568" height="424" y="-24" clip-path="url(#clipPath2)" stroke="none"/>
    </g>
    <g fill="url(#linearGradient1)" text-rendering="geometricPrecision" shape-rendering="geometricPrecision" transform="matrix(1,0,0,1,-170,24)" stroke="url(#linearGradient1)">
      <path d="M269 246 L349 246 L349 286 L269 286 Z" stroke="none" clip-path="url(#clipPath2)"/>
    </g>
    <g text-rendering="geometricPrecision" stroke-miterlimit="1.45" shape-rendering="geometricPrecision" transform="matrix(1,0,0,1,-170,24)" stroke-linecap="butt">
      <path fill="none" d="M269 246 L349 246 L349 286 L269 286 Z" clip-path="url(#clipPath2)"/>
      <text x="290.3232" xml:space="preserve" y="270.7139" clip-path="url(#clipPath2)" font-family="sans-serif" stroke="none">Closed</text>
    </g>
    <g fill="url(#linearGradient2)" text-rendering="geometricPrecision" shape-rendering="geometricPrecision" transform="matrix(1,0,0,1,-170,24)" stroke="url(#linearGradient2)">
      <path d="M580 246 L660 246 L660 286 L580 286 Z" stroke="none" clip-path="url(#clipPath2)"/>
    </g>
    <g text-rendering="geometricPrecision" stroke-miterlimit="1.45" shape-rendering="geometricPrecision" transform="matrix(1,0,0,1,-170,24)" stroke-linecap="butt">
      <path fill="none" d="M580 246 L660 246 L660 286 L580 286 Z" clip-path="url(#clipPath2)"/>
      <text x="592.6543" xml:space="preserve" y="270.7139" clip-path="url(#clipPath2)" font-family="sans-serif" stroke="none">Half-Open</text>
    </g>
    <g fill="url(#linearGradient3)" text-rendering="geometricPrecision" shape-rendering="geometricPrecision" transform="matrix(1,0,0,1,-170,24)" stroke="url(#linearGradient3)">
      <path d="M269 80 L349 80 L349 120 L269 120 Z" stroke="none" clip-path="url(#clipPath2)"/>
    </g>
    <g text-rendering="geometricPrecision" stroke-miterlimit="1.45" shape-rendering="geometricPrecision" transform="matrix(1,0,0,1,-170,24)" stroke-linecap="butt">
      <path fill="none" d="M269 80 L349 80 L349 120 L269 120 Z" clip-path="url(#clipPath2)"/>
      <text x="277.6553" xml:space="preserve" y="104.7139" clip-path="url(#clipPath2)" font-family="sans-serif" stroke="none">Half-Closed</text>
    </g>
    <g fill="url(#linearGradient4)" text-rendering="geometricPrecision" shape-rendering="geometricPrecision" transform="matrix(1,0,0,1,-170,24)" stroke="url(#linearGradient4)">
      <path d="M580 80 L660 80 L660 120 L580 120 Z" stroke="none" clip-path="url(#clipPath2)"/>
    </g>
    <g text-rendering="geometricPrecision" stroke-miterlimit="1.45" shape-rendering="geometricPrecision" transform="matrix(1,0,0,1,-170,24)" stroke-linecap="butt">
      <path fill="none" d="M580 80 L660 80 L660 120 L580 120 Z" clip-path="url(#clipPath2)"/>
      <text x="605.3223" xml:space="preserve" y="104.7139" clip-path="url(#clipPath2)" font-family="sans-serif" stroke="none">Open</text>
    </g>
    <g fill="white" text-rendering="geometricPrecision" shape-rendering="geometricPrecision" transform="matrix(1,0,0,1,-170,24)" stroke="white">
      <path d="M517.7 -8.4 L707.3 -8.4 L707.3 6.6 L722.3 6.6 L722.3 45.2 L517.7 45.2 Z" stroke="none" clip-path="url(#clipPath2)"/>
    </g>
    <g fill="white" text-rendering="geometricPrecision" shape-rendering="geometricPrecision" transform="matrix(1,0,0,1,-170,24)" stroke="white">
      <path d="M707.3 -8.4 L707.3 6.6 L722.3 6.6 Z" fill-rule="evenodd" clip-path="url(#clipPath2)" stroke="none"/>
    </g>
    <g text-rendering="geometricPrecision" stroke-miterlimit="1.45" shape-rendering="geometricPrecision" transform="matrix(1,0,0,1,-170,24)" stroke-linecap="butt">
      <path fill="none" d="M517.7 -8.4 L707.3 -8.4 L707.3 6.6 L722.3 6.6 L722.3 45.2 L517.7 45.2 Z" clip-path="url(#clipPath2)"/>
      <path fill="none" d="M707.3 -8.4 L707.3 6.6 L722.3 6.6 Z" clip-path="url(#clipPath2)" fill-rule="evenodd"/>
      <text x="582.6406" xml:space="preserve" y="15.7633" clip-path="url(#clipPath2)" font-family="sans-serif" stroke="none">connection to </text>
      <text x="546.2979" xml:space="preserve" y="30.4645" clip-path="url(#clipPath2)" font-family="sans-serif" stroke="none">ressource is open (blocked)</text>
    </g>
    <g fill="white" text-rendering="geometricPrecision" shape-rendering="geometricPrecision" transform="matrix(1,0,0,1,-170,24)" stroke="white">
      <path d="M194.6 -8.4 L408.4 -8.4 L408.4 6.6 L423.4 6.6 L423.4 45.2 L194.6 45.2 Z" stroke="none" clip-path="url(#clipPath2)"/>
      <path d="M408.4 -8.4 L408.4 6.6 L423.4 6.6 Z" clip-path="url(#clipPath2)" fill-rule="evenodd" stroke="none"/>
    </g>
    <g text-rendering="geometricPrecision" stroke-miterlimit="1.45" shape-rendering="geometricPrecision" transform="matrix(1,0,0,1,-170,24)" stroke-linecap="butt">
      <path fill="none" d="M194.6 -8.4 L408.4 -8.4 L408.4 6.6 L423.4 6.6 L423.4 45.2 L194.6 45.2 Z" clip-path="url(#clipPath2)"/>
      <path fill="none" d="M408.4 -8.4 L408.4 6.6 L423.4 6.6 Z" clip-path="url(#clipPath2)" fill-rule="evenodd"/>
      <text x="253.9805" xml:space="preserve" y="15.7633" clip-path="url(#clipPath2)" font-family="sans-serif" stroke="none">some errors occured</text>
      <text x="209.9531" xml:space="preserve" y="30.4645" clip-path="url(#clipPath2)" font-family="sans-serif" stroke="none">connection to ressource is still closed</text>
    </g>
    <g fill="white" text-rendering="geometricPrecision" shape-rendering="geometricPrecision" transform="matrix(1,0,0,1,-170,24)" stroke="white">
      <path d="M517.7 330.7 L707.3 330.7 L707.3 345.7 L722.3 345.7 L722.3 384.3 L517.7 384.3 Z" stroke="none" clip-path="url(#clipPath2)"/>
      <path d="M707.3 330.7 L707.3 345.7 L722.3 345.7 Z" clip-path="url(#clipPath2)" fill-rule="evenodd" stroke="none"/>
    </g>
    <g text-rendering="geometricPrecision" stroke-miterlimit="1.45" shape-rendering="geometricPrecision" transform="matrix(1,0,0,1,-170,24)" stroke-linecap="butt">
      <path fill="none" d="M517.7 330.7 L707.3 330.7 L707.3 345.7 L722.3 345.7 L722.3 384.3 L517.7 384.3 Z" clip-path="url(#clipPath2)"/>
      <path fill="none" d="M707.3 330.7 L707.3 345.7 L722.3 345.7 Z" clip-path="url(#clipPath2)" fill-rule="evenodd"/>
      <text x="553.9766" xml:space="preserve" y="354.8633" clip-path="url(#clipPath2)" font-family="sans-serif" stroke="none">try if access to ressouce </text>
      <text x="581.9785" xml:space="preserve" y="369.5645" clip-path="url(#clipPath2)" font-family="sans-serif" stroke="none">has recovered</text>
    </g>
    <g fill="white" text-rendering="geometricPrecision" shape-rendering="geometricPrecision" transform="matrix(1,0,0,1,-170,24)" stroke="white">
      <path d="M185.5 330.7 L417.5 330.7 L417.5 345.7 L432.5 345.7 L432.5 384.3 L185.5 384.3 Z" stroke="none" clip-path="url(#clipPath2)"/>
      <path d="M417.5 330.7 L417.5 345.7 L432.5 345.7 Z" clip-path="url(#clipPath2)" fill-rule="evenodd" stroke="none"/>
    </g>
    <g text-rendering="geometricPrecision" stroke-miterlimit="1.45" shape-rendering="geometricPrecision" transform="matrix(1,0,0,1,-170,24)" stroke-linecap="butt">
      <path fill="none" d="M185.5 330.7 L417.5 330.7 L417.5 345.7 L432.5 345.7 L432.5 384.3 L185.5 384.3 Z" clip-path="url(#clipPath2)"/>
      <path fill="none" d="M417.5 330.7 L417.5 345.7 L432.5 345.7 Z" clip-path="url(#clipPath2)" fill-rule="evenodd"/>
      <text x="230.6338" xml:space="preserve" y="354.8633" clip-path="url(#clipPath2)" font-family="sans-serif" stroke="none">access to ressource is closed</text>
      <text x="213.6182" xml:space="preserve" y="369.5645" clip-path="url(#clipPath2)" font-family="sans-serif" stroke="none">ressorce is assumed to be available</text>
      <path fill="none" d="M268.9987 266 L212.05 266 L212.05 279.63 L267.05 279.63 L268.9754 279.0044" clip-path="url(#clipPath2)"/>
      <path d="M268.9754 279.0044 L256.0177 277.9573 L260.4159 281.7855 L259.1078 287.4679 Z" clip-path="url(#clipPath2)" stroke="none"/>
      <rect x="204.847" y="237.4854" clip-path="url(#clipPath2)" fill="white" width="47.3477" height="18.7012" stroke="none"/>
      <text x="206.847" xml:space="preserve" y="251.5499" clip-path="url(#clipPath2)" font-family="sans-serif" stroke="none">success</text>
      <path fill="none" d="M580.024 266 L356.9985 266" clip-path="url(#clipPath2)"/>
      <path d="M348.9985 266 L360.9985 271 L357.9985 266 L360.9985 261 Z" clip-path="url(#clipPath2)" stroke="none"/>
      <rect x="440.8262" y="256.6494" clip-path="url(#clipPath2)" fill="white" width="47.3477" height="18.7012" stroke="none"/>
      <text x="442.8262" xml:space="preserve" y="270.7139" clip-path="url(#clipPath2)" font-family="sans-serif" stroke="none">success</text>
      <path fill="none" d="M324 246.0125 L324 127.9664" clip-path="url(#clipPath2)"/>
      <path d="M324 119.9664 L319 131.9664 L324 128.9664 L329 131.9664 Z" clip-path="url(#clipPath2)" stroke="none"/>
      <rect x="309.332" y="149.6494" clip-path="url(#clipPath2)" fill="white" width="29.3359" height="18.7012" stroke="none"/>
      <text x="311.332" xml:space="preserve" y="163.7139" clip-path="url(#clipPath2)" font-family="sans-serif" stroke="none">error</text>
      <path fill="none" d="M292 119.9758 L292 238.0001" clip-path="url(#clipPath2)"/>
      <path d="M292 246.0001 L297 234.0001 L292 237.0001 L287 234.0001 Z" clip-path="url(#clipPath2)" stroke="none"/>
      <rect x="268.3262" y="199.6494" clip-path="url(#clipPath2)" fill="white" width="47.3477" height="18.7012" stroke="none"/>
      <text x="270.3262" xml:space="preserve" y="213.7139" clip-path="url(#clipPath2)" font-family="sans-serif" stroke="none">success</text>
      <path fill="none" d="M348.976 100 L572.0015 100" clip-path="url(#clipPath2)"/>
      <path d="M580.0015 100 L568.0015 95 L571.0015 100 L568.0015 105 Z" clip-path="url(#clipPath2)" stroke="none"/>
      <rect x="449.832" y="90.6494" clip-path="url(#clipPath2)" fill="white" width="29.3359" height="18.7012" stroke="none"/>
      <text x="451.832" xml:space="preserve" y="104.7139" clip-path="url(#clipPath2)" font-family="sans-serif" stroke="none">error</text>
      <path fill="none" d="M635 245.9761 L635 127.9994" clip-path="url(#clipPath2)"/>
      <path d="M635 119.9994 L630 131.9994 L635 128.9994 L640 131.9994 Z" clip-path="url(#clipPath2)" stroke="none"/>
      <rect x="620.332" y="144.6494" clip-path="url(#clipPath2)" fill="white" width="29.3359" height="18.7012" stroke="none"/>
      <text x="622.332" xml:space="preserve" y="158.7139" clip-path="url(#clipPath2)" font-family="sans-serif" stroke="none">error</text>
      <path fill="none" d="M606 120.0063 L606 237.9656" clip-path="url(#clipPath2)"/>
      <path d="M606 245.9656 L611 233.9656 L606 236.9656 L601 233.9656 Z" clip-path="url(#clipPath2)" stroke="none"/>
      <rect x="584.3242" y="201.6494" clip-path="url(#clipPath2)" fill="white" width="43.3516" height="18.7012" stroke="none"/>
      <text x="586.3242" xml:space="preserve" y="215.7139" clip-path="url(#clipPath2)" font-family="sans-serif" stroke="none">timeout</text>
      <path fill="none" d="M620 80.0383 L620 45.2163" clip-path="url(#clipPath2)"/>
      <path fill="none" d="M309 45.2148 L309 80.0173" clip-path="url(#clipPath2)"/>
      <path fill="none" d="M620 285.9709 L620 330.7115" clip-path="url(#clipPath2)"/>
      <path fill="none" d="M309 330.738 L309 286.0094" clip-path="url(#clipPath2)"/>
    </g>
  </g>
</svg>
