<?xml version="1.0" encoding="UTF-8"?>
<svg xmlns="http://www.w3.org/2000/svg" viewBox="0 0 800 500" width="800" height="500">
  <rect width="800" height="500" fill="#ffffff"/>
  
  <text x="400" y="30" text-anchor="middle" font-family="system-ui" font-size="18" font-weight="bold" fill="#0f172a">Email Verification Security</text>
  
  <!-- Token Hashing -->
  <rect x="50" y="70" width="220" height="200" rx="8" fill="#f1f5f9" stroke="#3b82f6" stroke-width="2"/>
  <text x="160" y="95" text-anchor="middle" font-family="system-ui" font-size="13" font-weight="bold" fill="#3b82f6">Token Hashing</text>
  
  <rect x="70" y="115" width="180" height="45" rx="4" fill="#3b82f6" opacity="0.8"/>
  <text x="160" y="140" text-anchor="middle" font-family="system-ui" font-size="10" font-weight="bold" fill="#ffffff">Generate 256-bit Token</text>
  <text x="160" y="155" text-anchor="middle" font-family="system-ui" font-size="8" fill="#ffffff">crypto.randomBytes(32)</text>
  
  <rect x="70" y="170" width="180" height="45" rx="4" fill="#3b82f6" opacity="0.6"/>
  <text x="160" y="195" text-anchor="middle" font-family="system-ui" font-size="10" font-weight="bold" fill="#ffffff">Store bcrypt Hash</text>
  <text x="160" y="210" text-anchor="middle" font-family="system-ui" font-size="8" fill="#ffffff">Not plaintext</text>
  
  <rect x="70" y="225" width="180" height="45" rx="4" fill="#3b82f6" opacity="0.4"/>
  <text x="160" y="250" text-anchor="middle" font-family="system-ui" font-size="10" font-weight="bold" fill="#ffffff">Constant-time Compare</text>
  <text x="160" y="265" text-anchor="middle" font-family="system-ui" font-size="8" fill="#ffffff">Prevent timing attacks</text>
  
  <line x1="270" y1="170" x2="310" y2="170" stroke="#475569" stroke-width="2" marker-end="url(#arrow)"/>
  
  <!-- Rate Limiting -->
  <rect x="320" y="70" width="220" height="200" rx="8" fill="#fef2f2" stroke="#ef4444" stroke-width="2"/>
  <text x="430" y="95" text-anchor="middle" font-family="system-ui" font-size="13" font-weight="bold" fill="#ef4444">Rate Limiting</text>
  
  <rect x="340" y="115" width="180" height="45" rx="4" fill="#ef4444" opacity="0.8"/>
  <text x="430" y="140" text-anchor="middle" font-family="system-ui" font-size="10" font-weight="bold" fill="#ffffff">Per User: 3/hour</text>
  <text x="430" y="155" text-anchor="middle" font-family="system-ui" font-size="8" fill="#ffffff">Prevent spam</text>
  
  <rect x="340" y="170" width="180" height="45" rx="4" fill="#ef4444" opacity="0.6"/>
  <text x="430" y="195" text-anchor="middle" font-family="system-ui" font-size="10" font-weight="bold" fill="#ffffff">Per IP: 10/hour</text>
  <text x="430" y="210" text-anchor="middle" font-family="system-ui" font-size="8" fill="#ffffff">Prevent email bombing</text>
  
  <rect x="340" y="225" width="180" height="45" rx="4" fill="#ef4444" opacity="0.4"/>
  <text x="430" y="250" text-anchor="middle" font-family="system-ui" font-size="10" font-weight="bold" fill="#ffffff">Exponential Backoff</text>
  <text x="430" y="265" text-anchor="middle" font-family="system-ui" font-size="8" fill="#ffffff">For repeat offenders</text>
  
  <line x1="540" y1="170" x2="580" y2="170" stroke="#475569" stroke-width="2" marker-end="url(#arrow)"/>
  
  <!-- Enumeration Protection -->
  <rect x="590" y="70" width="160" height="200" rx="8" fill="#f8fafc" stroke="#8b5cf6" stroke-width="2"/>
  <text x="670" y="95" text-anchor="middle" font-family="system-ui" font-size="13" font-weight="bold" fill="#8b5cf6">Enumeration Protection</text>
  
  <rect x="610" y="115" width="120" height="50" rx="4" fill="#8b5cf6" opacity="0.8"/>
  <text x="670" y="140" text-anchor="middle" font-family="system-ui" font-size="10" font-weight="bold" fill="#ffffff">Same Response</text>
  <text x="670" y="160" text-anchor="middle" font-family="system-ui" font-size="8" fill="#ffffff">For all emails</text>
  
  <rect x="610" y="175" width="120" height="50" rx="4" fill="#8b5cf6" opacity="0.6"/>
  <text x="670" y="200" text-anchor="middle" font-family="system-ui" font-size="10" font-weight="bold" fill="#ffffff">"If account exists"</text>
  <text x="670" y="220" text-anchor="middle" font-family="system-ui" font-size="8" fill="#ffffff">Don't reveal existence</text>
  
  <rect x="610" y="235" width="120" height="30" rx="4" fill="#22c55e"/>
  <text x="670" y="255" text-anchor="middle" font-family="system-ui" font-size="9" fill="#ffffff">Prevents enumeration</text>
  
  <line x1="670" y1="270" x2="670" y2="310" stroke="#475569" stroke-width="2" marker-end="url(#arrow)"/>
  
  <!-- Bounce Handling -->
  <rect x="590" y="320" width="160" height="130" rx="8" fill="#dcfce7" stroke="#22c55e" stroke-width="2"/>
  <text x="670" y="345" text-anchor="middle" font-family="system-ui" font-size="13" font-weight="bold" fill="#0f172a">Bounce Handling</text>
  
  <rect x="610" y="360" width="120" height="35" rx="4" fill="#22c55e" opacity="0.8"/>
  <text x="670" y="382" text-anchor="middle" font-family="system-ui" font-size="9" fill="#ffffff">Monitor Bounces</text>
  
  <rect x="610" y="400" width="120" height="35" rx="4" fill="#22c55e" opacity="0.6"/>
  <text x="670" y="422" text-anchor="middle" font-family="system-ui" font-size="9" fill="#ffffff">Mark as Bounced</text>
  
  <rect x="610" y="440" width="120" height="35" rx="4" fill="#22c55e" opacity="0.4"/>
  <text x="670" y="462" text-anchor="middle" font-family="system-ui" font-size="9" fill="#ffffff">Allow Email Change</text>
  
  <!-- Token Expiry -->
  <rect x="50" y="320" width="220" height="130" rx="8" fill="#f8fafc" stroke="#e2e8f0" stroke-width="2"/>
  <text x="160" y="345" text-anchor="middle" font-family="system-ui" font-size="13" font-weight="bold" fill="#0f172a">Token Expiry</text>
  
  <rect x="70" y="360" width="180" height="35" rx="4" fill="#f1f5f9" stroke="#e2e8f0" stroke-width="1"/>
  <text x="160" y="382" text-anchor="middle" font-family="system-ui" font-size="9" fill="#0f172a">24-72 hours expiry</text>
  
  <rect x="70" y="400" width="180" height="35" rx="4" fill="#f1f5f9" stroke="#e2e8f0" stroke-width="1"/>
  <text x="160" y="422" text-anchor="middle" font-family="system-ui" font-size="9" fill="#0f172a">Invalidate after use</text>
  
  <rect x="70" y="440" width="180" height="35" rx="4" fill="#ef4444" opacity="0.3"/>
  <text x="160" y="462" text-anchor="middle" font-family="system-ui" font-size="9" fill="#991b1b">Never reuse tokens</text>
  
  <!-- Disposable Email Detection -->
  <rect x="320" y="320" width="220" height="130" rx="8" fill="#f8fafc" stroke="#e2e8f0" stroke-width="2"/>
  <text x="430" y="345" text-anchor="middle" font-family="system-ui" font-size="13" font-weight="bold" fill="#0f172a">Disposable Email Detection</text>
  
  <rect x="340" y="360" width="180" height="35" rx="4" fill="#f1f5f9" stroke="#e2e8f0" stroke-width="1"/>
  <text x="430" y="382" text-anchor="middle" font-family="system-ui" font-size="9" fill="#0f172a">Block known domains</text>
  
  <rect x="340" y="400" width="180" height="35" rx="4" fill="#f1f5f9" stroke="#e2e8f0" stroke-width="1"/>
  <text x="430" y="422" text-anchor="middle" font-family="system-ui" font-size="9" fill="#0f172a">Use validation APIs</text>
  
  <rect x="340" y="440" width="180" height="35" rx="4" fill="#8b5cf6"/>
  <text x="430" y="462" text-anchor="middle" font-family="system-ui" font-size="9" fill="#ffffff">Prevent fake accounts</text>

</svg>
